<?xml version='1.0' encoding='utf-8'?>
<mlt LC_NUMERIC="C" producer="main_bin" version="7.22.0" root="/home/furmountain/repos/battle-of-alturia/m1">
 <profile frame_rate_num="25" sample_aspect_num="1" display_aspect_den="9" colorspace="709" progressive="0" description="HD 1080i 25 fps" display_aspect_num="16" frame_rate_den="1" width="1920" height="1080" sample_aspect_den="1"/>
 <producer id="producer1" in="00:00:00.000" out="00:00:55.680">
  <property name="length">00:00:55.720</property>
  <property name="eof">pause</property>
  <property name="resource">scene1.webp</property>
  <property name="audio_index">-1</property>
  <property name="video_index">0</property>
  <property name="mute_on_pause">0</property>
  <property name="mlt_service">avformat-novalidate</property>
  <property name="meta.media.nb_streams">1</property>
  <property name="meta.media.0.stream.type">video</property>
  <property name="meta.media.0.stream.frame_rate">25</property>
  <property name="meta.media.0.stream.sample_aspect_ratio">0</property>
  <property name="meta.media.0.codec.width">1024</property>
  <property name="meta.media.0.codec.height">1024</property>
  <property name="meta.media.0.codec.rotate">0</property>
  <property name="meta.media.0.codec.pix_fmt">yuv420p</property>
  <property name="meta.media.0.codec.sample_aspect_ratio">0</property>
  <property name="meta.media.0.codec.colorspace">601</property>
  <property name="meta.media.0.codec.name">webp</property>
  <property name="meta.media.0.codec.long_name">WebP image</property>
  <property name="meta.media.0.codec.bit_rate">0</property>
  <property name="seekable">1</property>
  <property name="meta.media.sample_aspect_num">1</property>
  <property name="meta.media.sample_aspect_den">1</property>
  <property name="aspect_ratio">1</property>
  <property name="format">3</property>
  <property name="ttl">25</property>
  <property name="meta.media.progressive">1</property>
  <property name="meta.media.width">1024</property>
  <property name="meta.media.height">1024</property>
  <property name="kdenlive:duration">00:00:05.000</property>
  <property name="xml">was here</property>
  <property name="kdenlive:folderid">-1</property>
  <property name="kdenlive:id">3</property>
  <property name="kdenlive:control_uuid">{25f1b12c-f75b-41bb-99c1-0be396e66255}</property>
  <property name="kdenlive:clip_type">2</property>
  <property name="kdenlive:file_size">646462</property>
  <property name="kdenlive:monitorPosition">1</property>
  <property name="kdenlive:activeeffect">-1</property>
  <property name="kdenlive:clipname">scene1.webp</property>
  <property name="kdenlive:originalurl">scene1.webp</property>
  <property name="kdenlive:proxy">-</property>
  <property name="kdenlive:file_hash">c1edb1013e6970c933ba7414e2643cf3</property>
  <property name="vstream">0</property>
  <property name="meta.media.frame_rate_num">25</property>
  <property name="meta.media.frame_rate_den">1</property>
  <property name="meta.media.colorspace">601</property>
  <property name="meta.media.color_trc">2</property>
  <property name="meta.media.has_b_frames">0</property>
  <property name="meta.media.color_range">mpeg</property>
  <property name="meta.media.top_field_first">0</property>
  <property name="meta.media.aspect_ratio">1</property>
 </producer>
 <producer id="producer5" in="00:00:00.000" out="00:01:07.480">
  <property name="length">00:01:07.520</property>
  <property name="eof">pause</property>
  <property name="resource">ford.webp</property>
  <property name="audio_index">-1</property>
  <property name="video_index">0</property>
  <property name="mute_on_pause">0</property>
  <property name="mlt_service">avformat-novalidate</property>
  <property name="meta.media.nb_streams">1</property>
  <property name="meta.media.0.stream.type">video</property>
  <property name="meta.media.0.stream.frame_rate">25</property>
  <property name="meta.media.0.stream.sample_aspect_ratio">0</property>
  <property name="meta.media.0.codec.width">1024</property>
  <property name="meta.media.0.codec.height">1024</property>
  <property name="meta.media.0.codec.rotate">0</property>
  <property name="meta.media.0.codec.pix_fmt">yuv420p</property>
  <property name="meta.media.0.codec.sample_aspect_ratio">0</property>
  <property name="meta.media.0.codec.colorspace">601</property>
  <property name="meta.media.0.codec.name">webp</property>
  <property name="meta.media.0.codec.long_name">WebP image</property>
  <property name="meta.media.0.codec.bit_rate">0</property>
  <property name="seekable">1</property>
  <property name="meta.media.sample_aspect_num">1</property>
  <property name="meta.media.sample_aspect_den">1</property>
  <property name="aspect_ratio">1</property>
  <property name="format">3</property>
  <property name="ttl">25</property>
  <property name="meta.media.progressive">1</property>
  <property name="meta.media.width">1024</property>
  <property name="meta.media.height">1024</property>
  <property name="kdenlive:duration">00:00:05.000</property>
  <property name="xml">was here</property>
  <property name="kdenlive:folderid">-1</property>
  <property name="kdenlive:id">7</property>
  <property name="kdenlive:control_uuid">{2ffbfc52-32c1-4658-a814-26a9178237b2}</property>
  <property name="kdenlive:clip_type">2</property>
  <property name="kdenlive:file_size">374298</property>
  <property name="kdenlive:monitorPosition">1509</property>
  <property name="kdenlive:clipname">ford.webp</property>
  <property name="kdenlive:originalurl">ford.webp</property>
  <property name="kdenlive:proxy">-</property>
  <property name="kdenlive:file_hash">981d020aff274e7918b5faddfca1af58</property>
  <property name="vstream">0</property>
  <property name="meta.media.frame_rate_num">25</property>
  <property name="meta.media.frame_rate_den">1</property>
  <property name="meta.media.colorspace">601</property>
  <property name="meta.media.color_trc">2</property>
  <property name="meta.media.has_b_frames">0</property>
  <property name="meta.media.color_range">mpeg</property>
  <property name="meta.media.top_field_first">0</property>
  <property name="meta.media.aspect_ratio">1</property>
 </producer>
 <producer id="producer3" in="00:00:00.000" out="00:01:00.360">
  <property name="length">00:01:00.400</property>
  <property name="eof">pause</property>
  <property name="resource">wso.webp</property>
  <property name="audio_index">-1</property>
  <property name="video_index">0</property>
  <property name="mute_on_pause">0</property>
  <property name="mlt_service">avformat-novalidate</property>
  <property name="meta.media.nb_streams">1</property>
  <property name="meta.media.0.stream.type">video</property>
  <property name="meta.media.0.stream.frame_rate">25</property>
  <property name="meta.media.0.stream.sample_aspect_ratio">0</property>
  <property name="meta.media.0.codec.width">1024</property>
  <property name="meta.media.0.codec.height">1024</property>
  <property name="meta.media.0.codec.rotate">0</property>
  <property name="meta.media.0.codec.pix_fmt">yuv420p</property>
  <property name="meta.media.0.codec.sample_aspect_ratio">0</property>
  <property name="meta.media.0.codec.colorspace">601</property>
  <property name="meta.media.0.codec.name">webp</property>
  <property name="meta.media.0.codec.long_name">WebP image</property>
  <property name="meta.media.0.codec.bit_rate">0</property>
  <property name="seekable">1</property>
  <property name="meta.media.sample_aspect_num">1</property>
  <property name="meta.media.sample_aspect_den">1</property>
  <property name="aspect_ratio">1</property>
  <property name="format">3</property>
  <property name="ttl">25</property>
  <property name="meta.media.progressive">1</property>
  <property name="meta.media.width">1024</property>
  <property name="meta.media.height">1024</property>
  <property name="kdenlive:duration">00:00:05.000</property>
  <property name="xml">was here</property>
  <property name="kdenlive:folderid">-1</property>
  <property name="kdenlive:id">8</property>
  <property name="kdenlive:control_uuid">{491d9ad0-621b-4f22-8b24-b9ca68f4ced4}</property>
  <property name="kdenlive:clip_type">2</property>
  <property name="kdenlive:file_size">286534</property>
  <property name="kdenlive:monitorPosition">1140</property>
  <property name="kdenlive:clipname">wso.webp</property>
  <property name="kdenlive:originalurl">wso.webp</property>
  <property name="kdenlive:proxy">-</property>
  <property name="kdenlive:file_hash">05b50cbd22848e89fea59a0ccef2d63e</property>
  <property name="vstream">0</property>
  <property name="meta.media.frame_rate_num">25</property>
  <property name="meta.media.frame_rate_den">1</property>
  <property name="meta.media.colorspace">601</property>
  <property name="meta.media.color_trc">2</property>
  <property name="meta.media.has_b_frames">0</property>
  <property name="meta.media.color_range">mpeg</property>
  <property name="meta.media.top_field_first">0</property>
  <property name="meta.media.aspect_ratio">1</property>
 </producer>
 <producer id="producer8" in="00:00:00.000" out="00:01:05.880">
  <property name="length">1648</property>
  <property name="eof">pause</property>
  <property name="resource">papabear.webp</property>
  <property name="audio_index">-1</property>
  <property name="video_index">0</property>
  <property name="mute_on_pause">0</property>
  <property name="mlt_service">avformat-novalidate</property>
  <property name="meta.media.nb_streams">1</property>
  <property name="meta.media.0.stream.type">video</property>
  <property name="meta.media.0.stream.frame_rate">25</property>
  <property name="meta.media.0.stream.sample_aspect_ratio">0</property>
  <property name="meta.media.0.codec.width">1024</property>
  <property name="meta.media.0.codec.height">1024</property>
  <property name="meta.media.0.codec.rotate">0</property>
  <property name="meta.media.0.codec.pix_fmt">yuv420p</property>
  <property name="meta.media.0.codec.sample_aspect_ratio">0</property>
  <property name="meta.media.0.codec.colorspace">601</property>
  <property name="meta.media.0.codec.name">webp</property>
  <property name="meta.media.0.codec.long_name">WebP image</property>
  <property name="meta.media.0.codec.bit_rate">0</property>
  <property name="seekable">1</property>
  <property name="meta.media.sample_aspect_num">1</property>
  <property name="meta.media.sample_aspect_den">1</property>
  <property name="aspect_ratio">1</property>
  <property name="format">3</property>
  <property name="ttl">25</property>
  <property name="meta.media.progressive">1</property>
  <property name="meta.media.width">1024</property>
  <property name="meta.media.height">1024</property>
  <property name="kdenlive:duration">00:00:05:00</property>
  <property name="xml">was here</property>
  <property name="kdenlive:folderid">-1</property>
  <property name="kdenlive:id">9</property>
  <property name="kdenlive:control_uuid">{bea8c1fc-32cd-44cd-b0f1-b5646314d6c2}</property>
  <property name="kdenlive:clip_type">2</property>
  <property name="kdenlive:file_size">382232</property>
  <property name="kdenlive:file_hash">2ec677e69a6084239c92fee8400669f1</property>
  <property name="kdenlive:monitorPosition">0</property>
  <property name="vstream">0</property>
  <property name="meta.media.frame_rate_num">25</property>
  <property name="meta.media.frame_rate_den">1</property>
  <property name="meta.media.colorspace">601</property>
  <property name="meta.media.color_trc">2</property>
  <property name="meta.media.has_b_frames">0</property>
  <property name="meta.media.color_range">mpeg</property>
  <property name="meta.media.top_field_first">0</property>
  <property name="meta.media.aspect_ratio">1</property>
 </producer>
 <producer id="producer9" in="00:00:00.000" out="00:00:30.800">
  <property name="length">771</property>
  <property name="eof">pause</property>
  <property name="resource">raptor.webp</property>
  <property name="audio_index">-1</property>
  <property name="video_index">0</property>
  <property name="mute_on_pause">0</property>
  <property name="mlt_service">avformat-novalidate</property>
  <property name="meta.media.nb_streams">1</property>
  <property name="meta.media.0.stream.type">video</property>
  <property name="meta.media.0.stream.frame_rate">25</property>
  <property name="meta.media.0.stream.sample_aspect_ratio">0</property>
  <property name="meta.media.0.codec.width">1024</property>
  <property name="meta.media.0.codec.height">1024</property>
  <property name="meta.media.0.codec.rotate">0</property>
  <property name="meta.media.0.codec.pix_fmt">yuv420p</property>
  <property name="meta.media.0.codec.sample_aspect_ratio">0</property>
  <property name="meta.media.0.codec.colorspace">601</property>
  <property name="meta.media.0.codec.name">webp</property>
  <property name="meta.media.0.codec.long_name">WebP image</property>
  <property name="meta.media.0.codec.bit_rate">0</property>
  <property name="seekable">1</property>
  <property name="meta.media.sample_aspect_num">1</property>
  <property name="meta.media.sample_aspect_den">1</property>
  <property name="aspect_ratio">1</property>
  <property name="format">3</property>
  <property name="ttl">25</property>
  <property name="meta.media.progressive">1</property>
  <property name="meta.media.width">1024</property>
  <property name="meta.media.height">1024</property>
  <property name="kdenlive:duration">00:00:05:00</property>
  <property name="xml">was here</property>
  <property name="kdenlive:folderid">-1</property>
  <property name="kdenlive:id">10</property>
  <property name="kdenlive:control_uuid">{9602dfbc-496e-4fae-8d76-065ceb90657e}</property>
  <property name="kdenlive:clip_type">2</property>
  <property name="kdenlive:file_size">296858</property>
  <property name="kdenlive:file_hash">cdcc59dbed1ca63793cd6814ab7939fd</property>
  <property name="kdenlive:monitorPosition">0</property>
  <property name="vstream">0</property>
  <property name="meta.media.frame_rate_num">25</property>
  <property name="meta.media.frame_rate_den">1</property>
  <property name="meta.media.colorspace">601</property>
  <property name="meta.media.color_trc">2</property>
  <property name="meta.media.has_b_frames">0</property>
  <property name="meta.media.color_range">mpeg</property>
  <property name="meta.media.top_field_first">0</property>
  <property name="meta.media.aspect_ratio">1</property>
 </producer>
 <producer id="producer7" in="00:00:00.000" out="00:00:38.080">
  <property name="length">953</property>
  <property name="eof">pause</property>
  <property name="resource">scene 5.webp</property>
  <property name="audio_index">-1</property>
  <property name="video_index">0</property>
  <property name="mute_on_pause">0</property>
  <property name="mlt_service">avformat-novalidate</property>
  <property name="meta.media.nb_streams">1</property>
  <property name="meta.media.0.stream.type">video</property>
  <property name="meta.media.0.stream.frame_rate">25</property>
  <property name="meta.media.0.stream.sample_aspect_ratio">0</property>
  <property name="meta.media.0.codec.width">1024</property>
  <property name="meta.media.0.codec.height">1024</property>
  <property name="meta.media.0.codec.rotate">0</property>
  <property name="meta.media.0.codec.pix_fmt">yuv420p</property>
  <property name="meta.media.0.codec.sample_aspect_ratio">0</property>
  <property name="meta.media.0.codec.colorspace">601</property>
  <property name="meta.media.0.codec.name">webp</property>
  <property name="meta.media.0.codec.long_name">WebP image</property>
  <property name="meta.media.0.codec.bit_rate">0</property>
  <property name="seekable">1</property>
  <property name="meta.media.sample_aspect_num">1</property>
  <property name="meta.media.sample_aspect_den">1</property>
  <property name="aspect_ratio">1</property>
  <property name="format">3</property>
  <property name="ttl">25</property>
  <property name="meta.media.progressive">1</property>
  <property name="meta.media.width">1024</property>
  <property name="meta.media.height">1024</property>
  <property name="kdenlive:duration">00:00:05:00</property>
  <property name="xml">was here</property>
  <property name="kdenlive:folderid">-1</property>
  <property name="kdenlive:id">12</property>
  <property name="kdenlive:control_uuid">{3601d84d-61f8-4b48-8b74-6e111e810746}</property>
  <property name="kdenlive:clip_type">2</property>
  <property name="kdenlive:file_size">270472</property>
  <property name="kdenlive:file_hash">c6c63f0ccee50b9fe1e815144b7d3ba2</property>
  <property name="vstream">0</property>
  <property name="meta.media.frame_rate_num">25</property>
  <property name="meta.media.frame_rate_den">1</property>
  <property name="meta.media.colorspace">601</property>
  <property name="meta.media.color_trc">2</property>
  <property name="meta.media.has_b_frames">0</property>
  <property name="meta.media.color_range">mpeg</property>
  <property name="meta.media.top_field_first">0</property>
  <property name="meta.media.aspect_ratio">1</property>
 </producer>
 <chain id="chain11" out="00:00:59.960">
  <property name="length">1500</property>
  <property name="eof">pause</property>
  <property name="resource">ghost-hawk-dialog.webp</property>
  <property name="mlt_service">avformat-novalidate</property>
  <property name="meta.media.nb_streams">1</property>
  <property name="meta.media.0.stream.type">video</property>
  <property name="meta.media.0.stream.frame_rate">25</property>
  <property name="meta.media.0.stream.sample_aspect_ratio">0</property>
  <property name="meta.media.0.codec.width">1024</property>
  <property name="meta.media.0.codec.height">1024</property>
  <property name="meta.media.0.codec.rotate">0</property>
  <property name="meta.media.0.codec.pix_fmt">yuv420p</property>
  <property name="meta.media.0.codec.sample_aspect_ratio">0</property>
  <property name="meta.media.0.codec.colorspace">601</property>
  <property name="meta.media.0.codec.name">webp</property>
  <property name="meta.media.0.codec.long_name">WebP image</property>
  <property name="meta.media.0.codec.bit_rate">0</property>
  <property name="seekable">1</property>
  <property name="meta.media.sample_aspect_num">1</property>
  <property name="meta.media.sample_aspect_den">1</property>
  <property name="format">3</property>
  <property name="audio_index">-1</property>
  <property name="video_index">0</property>
  <property name="vstream">0</property>
  <property name="meta.media.frame_rate_num">25</property>
  <property name="meta.media.frame_rate_den">1</property>
  <property name="meta.media.colorspace">601</property>
  <property name="meta.media.color_trc">2</property>
  <property name="meta.media.has_b_frames">0</property>
  <property name="meta.media.width">1024</property>
  <property name="meta.media.height">1024</property>
  <property name="meta.media.color_range">mpeg</property>
  <property name="meta.media.top_field_first">0</property>
  <property name="meta.media.progressive">1</property>
  <property name="kdenlive:folderid">-1</property>
  <property name="kdenlive:id">13</property>
  <property name="mute_on_pause">0</property>
  <property name="kdenlive:clip_type">2</property>
  <property name="kdenlive:file_size">354674</property>
  <property name="kdenlive:file_hash">40bda8fd31d71eb087abc5b2ba387ad8</property>
  <property name="kdenlive:control_uuid">{ba2909c0-3524-4d33-8d37-593e7523aab2}</property>
  <property name="meta.media.aspect_ratio">1</property>
  <property name="kdenlive:monitorPosition">0</property>
 </chain>
 <chain id="chain12" out="00:00:59.960">
  <property name="length">1500</property>
  <property name="eof">pause</property>
  <property name="resource">papa-bear-dialog.webp</property>
  <property name="mlt_service">avformat-novalidate</property>
  <property name="meta.media.nb_streams">1</property>
  <property name="meta.media.0.stream.type">video</property>
  <property name="meta.media.0.stream.frame_rate">25</property>
  <property name="meta.media.0.stream.sample_aspect_ratio">0</property>
  <property name="meta.media.0.codec.width">1024</property>
  <property name="meta.media.0.codec.height">1024</property>
  <property name="meta.media.0.codec.rotate">0</property>
  <property name="meta.media.0.codec.pix_fmt">yuv420p</property>
  <property name="meta.media.0.codec.sample_aspect_ratio">0</property>
  <property name="meta.media.0.codec.colorspace">601</property>
  <property name="meta.media.0.codec.name">webp</property>
  <property name="meta.media.0.codec.long_name">WebP image</property>
  <property name="meta.media.0.codec.bit_rate">0</property>
  <property name="seekable">1</property>
  <property name="meta.media.sample_aspect_num">1</property>
  <property name="meta.media.sample_aspect_den">1</property>
  <property name="format">3</property>
  <property name="audio_index">-1</property>
  <property name="video_index">0</property>
  <property name="vstream">0</property>
  <property name="meta.media.frame_rate_num">25</property>
  <property name="meta.media.frame_rate_den">1</property>
  <property name="meta.media.colorspace">601</property>
  <property name="meta.media.color_trc">2</property>
  <property name="meta.media.has_b_frames">0</property>
  <property name="meta.media.width">1024</property>
  <property name="meta.media.height">1024</property>
  <property name="meta.media.color_range">mpeg</property>
  <property name="meta.media.top_field_first">0</property>
  <property name="meta.media.progressive">1</property>
  <property name="kdenlive:folderid">-1</property>
  <property name="kdenlive:id">14</property>
  <property name="mute_on_pause">0</property>
  <property name="kdenlive:clip_type">2</property>
  <property name="kdenlive:file_size">392172</property>
  <property name="kdenlive:file_hash">908e4d3d36e25f095715751ee64f2bf0</property>
  <property name="kdenlive:control_uuid">{a3574d3b-164a-49cf-8ea5-f9061fecc5be}</property>
  <property name="meta.media.aspect_ratio">1</property>
  <property name="kdenlive:monitorPosition">0</property>
 </chain>
 <chain id="chain13" out="00:00:59.960">
  <property name="length">1500</property>
  <property name="eof">pause</property>
  <property name="resource">colonel-dialog.webp</property>
  <property name="mlt_service">avformat-novalidate</property>
  <property name="meta.media.nb_streams">1</property>
  <property name="meta.media.0.stream.type">video</property>
  <property name="meta.media.0.stream.frame_rate">25</property>
  <property name="meta.media.0.stream.sample_aspect_ratio">0</property>
  <property name="meta.media.0.codec.width">1024</property>
  <property name="meta.media.0.codec.height">1024</property>
  <property name="meta.media.0.codec.rotate">0</property>
  <property name="meta.media.0.codec.pix_fmt">yuv420p</property>
  <property name="meta.media.0.codec.sample_aspect_ratio">0</property>
  <property name="meta.media.0.codec.colorspace">601</property>
  <property name="meta.media.0.codec.name">webp</property>
  <property name="meta.media.0.codec.long_name">WebP image</property>
  <property name="meta.media.0.codec.bit_rate">0</property>
  <property name="seekable">1</property>
  <property name="meta.media.sample_aspect_num">1</property>
  <property name="meta.media.sample_aspect_den">1</property>
  <property name="format">3</property>
  <property name="audio_index">-1</property>
  <property name="video_index">0</property>
  <property name="vstream">0</property>
  <property name="meta.media.frame_rate_num">25</property>
  <property name="meta.media.frame_rate_den">1</property>
  <property name="meta.media.colorspace">601</property>
  <property name="meta.media.color_trc">2</property>
  <property name="meta.media.has_b_frames">0</property>
  <property name="meta.media.width">1024</property>
  <property name="meta.media.height">1024</property>
  <property name="meta.media.color_range">mpeg</property>
  <property name="meta.media.top_field_first">0</property>
  <property name="meta.media.progressive">1</property>
  <property name="kdenlive:folderid">-1</property>
  <property name="kdenlive:id">15</property>
  <property name="mute_on_pause">0</property>
  <property name="kdenlive:clip_type">2</property>
  <property name="kdenlive:file_size">265378</property>
  <property name="kdenlive:file_hash">5c48f0c6ec113375ca8124bd615f0360</property>
  <property name="kdenlive:control_uuid">{ec71b50d-558f-4d78-921e-c25e82ad96d6}</property>
  <property name="meta.media.aspect_ratio">1</property>
  <property name="kdenlive:monitorPosition">0</property>
 </chain>
 <chain id="chain14" out="00:00:59.960">
  <property name="length">1500</property>
  <property name="eof">pause</property>
  <property name="resource">scene7.webp</property>
  <property name="mlt_service">avformat-novalidate</property>
  <property name="meta.media.nb_streams">1</property>
  <property name="meta.media.0.stream.type">video</property>
  <property name="meta.media.0.stream.frame_rate">25</property>
  <property name="meta.media.0.stream.sample_aspect_ratio">0</property>
  <property name="meta.media.0.codec.width">1024</property>
  <property name="meta.media.0.codec.height">1024</property>
  <property name="meta.media.0.codec.rotate">0</property>
  <property name="meta.media.0.codec.pix_fmt">yuv420p</property>
  <property name="meta.media.0.codec.sample_aspect_ratio">0</property>
  <property name="meta.media.0.codec.colorspace">601</property>
  <property name="meta.media.0.codec.name">webp</property>
  <property name="meta.media.0.codec.long_name">WebP image</property>
  <property name="meta.media.0.codec.bit_rate">0</property>
  <property name="seekable">1</property>
  <property name="meta.media.sample_aspect_num">1</property>
  <property name="meta.media.sample_aspect_den">1</property>
  <property name="format">3</property>
  <property name="audio_index">-1</property>
  <property name="video_index">0</property>
  <property name="vstream">0</property>
  <property name="meta.media.frame_rate_num">25</property>
  <property name="meta.media.frame_rate_den">1</property>
  <property name="meta.media.colorspace">601</property>
  <property name="meta.media.color_trc">2</property>
  <property name="meta.media.has_b_frames">0</property>
  <property name="meta.media.width">1024</property>
  <property name="meta.media.height">1024</property>
  <property name="meta.media.color_range">mpeg</property>
  <property name="meta.media.top_field_first">0</property>
  <property name="meta.media.progressive">1</property>
  <property name="kdenlive:folderid">-1</property>
  <property name="kdenlive:id">16</property>
  <property name="mute_on_pause">0</property>
  <property name="kdenlive:clip_type">2</property>
  <property name="kdenlive:file_size">271010</property>
  <property name="kdenlive:file_hash">f3e813ee777e4cb11a471bc8e24d1e8a</property>
  <property name="kdenlive:control_uuid">{cacefc22-d203-42a8-a7af-2f156f634340}</property>
 </chain>
 <chain id="chain15" out="00:00:59.960">
  <property name="length">1500</property>
  <property name="eof">pause</property>
  <property name="resource">scene8.webp</property>
  <property name="mlt_service">avformat-novalidate</property>
  <property name="meta.media.nb_streams">1</property>
  <property name="meta.media.0.stream.type">video</property>
  <property name="meta.media.0.stream.frame_rate">25</property>
  <property name="meta.media.0.stream.sample_aspect_ratio">0</property>
  <property name="meta.media.0.codec.width">1024</property>
  <property name="meta.media.0.codec.height">1024</property>
  <property name="meta.media.0.codec.rotate">0</property>
  <property name="meta.media.0.codec.pix_fmt">yuv420p</property>
  <property name="meta.media.0.codec.sample_aspect_ratio">0</property>
  <property name="meta.media.0.codec.colorspace">601</property>
  <property name="meta.media.0.codec.name">webp</property>
  <property name="meta.media.0.codec.long_name">WebP image</property>
  <property name="meta.media.0.codec.bit_rate">0</property>
  <property name="seekable">1</property>
  <property name="meta.media.sample_aspect_num">1</property>
  <property name="meta.media.sample_aspect_den">1</property>
  <property name="format">3</property>
  <property name="audio_index">-1</property>
  <property name="video_index">0</property>
  <property name="vstream">0</property>
  <property name="meta.media.frame_rate_num">25</property>
  <property name="meta.media.frame_rate_den">1</property>
  <property name="meta.media.colorspace">601</property>
  <property name="meta.media.color_trc">2</property>
  <property name="meta.media.has_b_frames">0</property>
  <property name="meta.media.width">1024</property>
  <property name="meta.media.height">1024</property>
  <property name="meta.media.color_range">mpeg</property>
  <property name="meta.media.top_field_first">0</property>
  <property name="meta.media.progressive">1</property>
  <property name="kdenlive:folderid">-1</property>
  <property name="kdenlive:id">17</property>
  <property name="mute_on_pause">0</property>
  <property name="kdenlive:clip_type">2</property>
  <property name="kdenlive:file_size">224878</property>
  <property name="kdenlive:file_hash">73d39fa66b047599719c8fa69853da5f</property>
  <property name="kdenlive:control_uuid">{9d01c918-545d-4e3a-a592-bf20b4d07a50}</property>
 </chain>
 <chain id="chain19" out="00:03:41.920">
  <property name="length">5549</property>
  <property name="eof">pause</property>
  <property name="resource">ES_In Night's Embrace - Christoffer Moe Ditlevsen (Version c34b90d2) - fullmix_high_quality.mp3</property>
  <property name="mlt_service">avformat</property>
  <property name="meta.media.nb_streams">1</property>
  <property name="meta.media.0.stream.type">audio</property>
  <property name="meta.media.0.codec.sample_fmt">fltp</property>
  <property name="meta.media.0.codec.sample_rate">48000</property>
  <property name="meta.media.0.codec.channels">2</property>
  <property name="meta.media.0.codec.layout">stereo</property>
  <property name="meta.media.0.codec.name">mp3float</property>
  <property name="meta.media.0.codec.long_name">MP3 (MPEG audio layer 3)</property>
  <property name="meta.media.0.codec.bit_rate">153435</property>
  <property name="meta.attr.0.stream.encoder.markup">LAME3.100</property>
  <property name="seekable">1</property>
  <property name="audio_index">0</property>
  <property name="video_index">-1</property>
  <property name="astream">0</property>
  <property name="kdenlive:folderid">-1</property>
  <property name="kdenlive:id">18</property>
  <property name="kdenlive:control_uuid">{67fd4a5e-2ee6-4497-a19e-8c9df8b9587f}</property>
  <property name="kdenlive:clip_type">1</property>
  <property name="kdenlive:file_size">4257360</property>
  <property name="kdenlive:file_hash">f48c4a85c23809562155e03e7d0b21b5</property>
  <property name="kdenlive:audio_max0">231</property>
  <property name="kdenlive:monitorPosition">0</property>
 </chain>
 <chain id="chain20" out="00:01:25.440">
  <property name="length">2137</property>
  <property name="eof">pause</property>
  <property name="resource">ES_Personal Vendetta - Edgar Hopp (Version d95a2db8) - fullmix_high_quality.mp3</property>
  <property name="mlt_service">avformat</property>
  <property name="meta.media.nb_streams">1</property>
  <property name="meta.media.0.stream.type">audio</property>
  <property name="meta.media.0.codec.sample_fmt">fltp</property>
  <property name="meta.media.0.codec.sample_rate">48000</property>
  <property name="meta.media.0.codec.channels">2</property>
  <property name="meta.media.0.codec.layout">stereo</property>
  <property name="meta.media.0.codec.name">mp3float</property>
  <property name="meta.media.0.codec.long_name">MP3 (MPEG audio layer 3)</property>
  <property name="meta.media.0.codec.bit_rate">162283</property>
  <property name="meta.attr.0.stream.encoder.markup">LAME3.100</property>
  <property name="seekable">1</property>
  <property name="audio_index">0</property>
  <property name="video_index">-1</property>
  <property name="astream">0</property>
  <property name="kdenlive:folderid">-1</property>
  <property name="kdenlive:id">19</property>
  <property name="kdenlive:control_uuid">{85516cfb-4505-4e6a-8863-d1b2aa8bacdc}</property>
  <property name="kdenlive:clip_type">1</property>
  <property name="kdenlive:file_size">1733664</property>
  <property name="kdenlive:file_hash">3f07f0a0d6b2c851c2378393c2243875</property>
  <property name="kdenlive:audio_max0">242</property>
  <property name="kdenlive:monitorPosition">0</property>
 </chain>
 <chain id="chain21" out="00:00:18.200">
  <property name="length">456</property>
  <property name="eof">pause</property>
  <property name="resource">ElevenLabs_2024-11-18T20_56_50_Lloyd_gen_s50_sb75_se0_b_m2.mp3</property>
  <property name="mlt_service">avformat</property>
  <property name="meta.media.nb_streams">1</property>
  <property name="meta.media.0.stream.type">audio</property>
  <property name="meta.media.0.codec.sample_fmt">fltp</property>
  <property name="meta.media.0.codec.sample_rate">44100</property>
  <property name="meta.media.0.codec.channels">1</property>
  <property name="meta.media.0.codec.layout">mono</property>
  <property name="meta.media.0.codec.name">mp3float</property>
  <property name="meta.media.0.codec.long_name">MP3 (MPEG audio layer 3)</property>
  <property name="meta.media.0.codec.bit_rate">128000</property>
  <property name="seekable">1</property>
  <property name="audio_index">0</property>
  <property name="video_index">-1</property>
  <property name="astream">0</property>
  <property name="kdenlive:folderid">-1</property>
  <property name="kdenlive:id">20</property>
  <property name="kdenlive:control_uuid">{44a9b97c-a85c-4cc4-ac88-5d372d3579a2}</property>
  <property name="kdenlive:clip_type">1</property>
  <property name="kdenlive:file_size">291735</property>
  <property name="kdenlive:file_hash">13004b00b9330ecd2ab046e415fb6f25</property>
  <property name="kdenlive:audio_max0">218</property>
  <property name="kdenlive:monitorPosition">0</property>
 </chain>
 <chain id="chain34" out="00:00:03.480">
  <property name="length">88</property>
  <property name="eof">pause</property>
  <property name="resource">WSO.mp3</property>
  <property name="mlt_service">avformat</property>
  <property name="meta.media.nb_streams">1</property>
  <property name="meta.media.0.stream.type">audio</property>
  <property name="meta.media.0.codec.sample_fmt">fltp</property>
  <property name="meta.media.0.codec.sample_rate">44100</property>
  <property name="meta.media.0.codec.channels">1</property>
  <property name="meta.media.0.codec.layout">mono</property>
  <property name="meta.media.0.codec.name">mp3float</property>
  <property name="meta.media.0.codec.long_name">MP3 (MPEG audio layer 3)</property>
  <property name="meta.media.0.codec.bit_rate">128000</property>
  <property name="seekable">1</property>
  <property name="audio_index">0</property>
  <property name="video_index">-1</property>
  <property name="astream">0</property>
  <property name="kdenlive:folderid">-1</property>
  <property name="kdenlive:id">21</property>
  <property name="kdenlive:control_uuid">{0162c18e-d0a7-45e5-8010-93c68e430b33}</property>
  <property name="kdenlive:clip_type">1</property>
  <property name="kdenlive:file_size">56424</property>
  <property name="kdenlive:file_hash">acdcf88f2093d7d0160f05bf8538bf69</property>
  <property name="kdenlive:audio_max0">222</property>
  <property name="kdenlive:monitorPosition">0</property>
 </chain>
 <chain id="chain35" out="00:00:04.960">
  <property name="length">125</property>
  <property name="eof">pause</property>
  <property name="resource">papa-bear.mp3</property>
  <property name="mlt_service">avformat</property>
  <property name="meta.media.nb_streams">1</property>
  <property name="meta.media.0.stream.type">audio</property>
  <property name="meta.media.0.codec.sample_fmt">fltp</property>
  <property name="meta.media.0.codec.sample_rate">44100</property>
  <property name="meta.media.0.codec.channels">1</property>
  <property name="meta.media.0.codec.layout">mono</property>
  <property name="meta.media.0.codec.name">mp3float</property>
  <property name="meta.media.0.codec.long_name">MP3 (MPEG audio layer 3)</property>
  <property name="meta.media.0.codec.bit_rate">128000</property>
  <property name="seekable">1</property>
  <property name="audio_index">0</property>
  <property name="video_index">-1</property>
  <property name="astream">0</property>
  <property name="kdenlive:folderid">-1</property>
  <property name="kdenlive:id">22</property>
  <property name="kdenlive:control_uuid">{c7e0a4c8-1502-4bb8-8714-37cc5e600fe3}</property>
  <property name="kdenlive:clip_type">1</property>
  <property name="kdenlive:file_size">80248</property>
  <property name="kdenlive:file_hash">200012dfce78cf4e2472deca5cb38894</property>
  <property name="kdenlive:audio_max0">211</property>
  <property name="kdenlive:monitorPosition">0</property>
 </chain>
 <chain id="chain36" out="00:00:05.360">
  <property name="length">135</property>
  <property name="eof">pause</property>
  <property name="resource">raptor.mp3</property>
  <property name="mlt_service">avformat</property>
  <property name="meta.media.nb_streams">1</property>
  <property name="meta.media.0.stream.type">audio</property>
  <property name="meta.media.0.codec.sample_fmt">fltp</property>
  <property name="meta.media.0.codec.sample_rate">44100</property>
  <property name="meta.media.0.codec.channels">1</property>
  <property name="meta.media.0.codec.layout">mono</property>
  <property name="meta.media.0.codec.name">mp3float</property>
  <property name="meta.media.0.codec.long_name">MP3 (MPEG audio layer 3)</property>
  <property name="meta.media.0.codec.bit_rate">128000</property>
  <property name="seekable">1</property>
  <property name="audio_index">0</property>
  <property name="video_index">-1</property>
  <property name="astream">0</property>
  <property name="kdenlive:folderid">-1</property>
  <property name="kdenlive:id">23</property>
  <property name="kdenlive:control_uuid">{19769ebd-593b-4387-9cc3-e417a068e4a8}</property>
  <property name="kdenlive:clip_type">1</property>
  <property name="kdenlive:file_size">86099</property>
  <property name="kdenlive:file_hash">f06a80845226cfd551d438de01943a67</property>
  <property name="kdenlive:audio_max0">209</property>
  <property name="kdenlive:monitorPosition">0</property>
 </chain>
 <chain id="chain37" out="00:00:04.920">
  <property name="length">124</property>
  <property name="eof">pause</property>
  <property name="resource">ford.mp3</property>
  <property name="mlt_service">avformat</property>
  <property name="meta.media.nb_streams">1</property>
  <property name="meta.media.0.stream.type">audio</property>
  <property name="meta.media.0.codec.sample_fmt">fltp</property>
  <property name="meta.media.0.codec.sample_rate">44100</property>
  <property name="meta.media.0.codec.channels">1</property>
  <property name="meta.media.0.codec.layout">mono</property>
  <property name="meta.media.0.codec.name">mp3float</property>
  <property name="meta.media.0.codec.long_name">MP3 (MPEG audio layer 3)</property>
  <property name="meta.media.0.codec.bit_rate">128000</property>
  <property name="seekable">1</property>
  <property name="audio_index">0</property>
  <property name="video_index">-1</property>
  <property name="astream">0</property>
  <property name="kdenlive:folderid">-1</property>
  <property name="kdenlive:id">24</property>
  <property name="kdenlive:control_uuid">{79b0d2fc-1e6b-4406-b007-6c89ef4285fb}</property>
  <property name="kdenlive:clip_type">1</property>
  <property name="kdenlive:file_size">79412</property>
  <property name="kdenlive:file_hash">7db17ef9dd1847f260a6c4d52fe5838f</property>
  <property name="kdenlive:audio_max0">209</property>
  <property name="kdenlive:monitorPosition">0</property>
 </chain>
 <chain id="chain38" out="00:00:15.440">
  <property name="length">387</property>
  <property name="eof">pause</property>
  <property name="resource">scene2.mp3</property>
  <property name="mlt_service">avformat</property>
  <property name="meta.media.nb_streams">1</property>
  <property name="meta.media.0.stream.type">audio</property>
  <property name="meta.media.0.codec.sample_fmt">fltp</property>
  <property name="meta.media.0.codec.sample_rate">44100</property>
  <property name="meta.media.0.codec.channels">1</property>
  <property name="meta.media.0.codec.layout">mono</property>
  <property name="meta.media.0.codec.name">mp3float</property>
  <property name="meta.media.0.codec.long_name">MP3 (MPEG audio layer 3)</property>
  <property name="meta.media.0.codec.bit_rate">128000</property>
  <property name="seekable">1</property>
  <property name="audio_index">0</property>
  <property name="video_index">-1</property>
  <property name="astream">0</property>
  <property name="kdenlive:folderid">-1</property>
  <property name="kdenlive:id">25</property>
  <property name="kdenlive:control_uuid">{6d40be71-0f34-45c1-9e0b-284188cdabde}</property>
  <property name="kdenlive:clip_type">1</property>
  <property name="kdenlive:file_size">247431</property>
  <property name="kdenlive:file_hash">98ab76fc02d39cfe95b6e07ae46d0bd4</property>
  <property name="kdenlive:audio_max0">202</property>
  <property name="kdenlive:monitorPosition">0</property>
 </chain>
 <chain id="chain39" out="00:00:13.280">
  <property name="length">333</property>
  <property name="eof">pause</property>
  <property name="resource">scene4.mp3</property>
  <property name="mlt_service">avformat</property>
  <property name="meta.media.nb_streams">1</property>
  <property name="meta.media.0.stream.type">audio</property>
  <property name="meta.media.0.codec.sample_fmt">fltp</property>
  <property name="meta.media.0.codec.sample_rate">44100</property>
  <property name="meta.media.0.codec.channels">1</property>
  <property name="meta.media.0.codec.layout">mono</property>
  <property name="meta.media.0.codec.name">mp3float</property>
  <property name="meta.media.0.codec.long_name">MP3 (MPEG audio layer 3)</property>
  <property name="meta.media.0.codec.bit_rate">128000</property>
  <property name="seekable">1</property>
  <property name="audio_index">0</property>
  <property name="video_index">-1</property>
  <property name="astream">0</property>
  <property name="kdenlive:folderid">-1</property>
  <property name="kdenlive:id">26</property>
  <property name="kdenlive:control_uuid">{6ff87d6c-adbc-428d-b833-8fffd9fec6f0}</property>
  <property name="kdenlive:clip_type">1</property>
  <property name="kdenlive:file_size">213159</property>
  <property name="kdenlive:file_hash">06e57909886bed66bf527cc7fe01079c</property>
  <property name="kdenlive:audio_max0">198</property>
  <property name="kdenlive:monitorPosition">31</property>
  <property name="kdenlive:clipname">neal-scene4.mp3</property>
 </chain>
 <chain id="chain40" out="00:00:10.920">
  <property name="length">274</property>
  <property name="eof">pause</property>
  <property name="resource">scene5.mp3</property>
  <property name="mlt_service">avformat</property>
  <property name="meta.media.nb_streams">1</property>
  <property name="meta.media.0.stream.type">audio</property>
  <property name="meta.media.0.codec.sample_fmt">fltp</property>
  <property name="meta.media.0.codec.sample_rate">44100</property>
  <property name="meta.media.0.codec.channels">1</property>
  <property name="meta.media.0.codec.layout">mono</property>
  <property name="meta.media.0.codec.name">mp3float</property>
  <property name="meta.media.0.codec.long_name">MP3 (MPEG audio layer 3)</property>
  <property name="meta.media.0.codec.bit_rate">128000</property>
  <property name="seekable">1</property>
  <property name="audio_index">0</property>
  <property name="video_index">-1</property>
  <property name="astream">0</property>
  <property name="kdenlive:folderid">-1</property>
  <property name="kdenlive:id">27</property>
  <property name="kdenlive:control_uuid">{eca3c24e-db70-4b49-8553-39797717db7e}</property>
  <property name="kdenlive:clip_type">1</property>
  <property name="kdenlive:file_size">175124</property>
  <property name="kdenlive:file_hash">19b0e6f226b98b6a2fd10c9a10c6a7b6</property>
  <property name="kdenlive:audio_max0">199</property>
  <property name="kdenlive:activeeffect">0</property>
  <property name="kdenlive:monitorPosition">26</property>
  <property name="kdenlive:clipname">lloyd-scene5.mp3</property>
  <filter id="filter94">
   <property name="mlt_service">avfilter.compand</property>
   <property name="kdenlive_id">avfilter.compand</property>
   <property name="av.attacks">0</property>
   <property name="av.decays">0.8</property>
   <property name="av.soft-knee">0.01</property>
   <property name="av.gain">0</property>
   <property name="av.volume">0</property>
   <property name="kdenlive:collapsed">0</property>
  </filter>
 </chain>
 <chain id="chain41" out="00:00:05.360">
  <property name="length">135</property>
  <property name="eof">pause</property>
  <property name="resource">chris-ford-scene6.mp3</property>
  <property name="mlt_service">avformat</property>
  <property name="meta.media.nb_streams">1</property>
  <property name="meta.media.0.stream.type">audio</property>
  <property name="meta.media.0.codec.sample_fmt">fltp</property>
  <property name="meta.media.0.codec.sample_rate">44100</property>
  <property name="meta.media.0.codec.channels">1</property>
  <property name="meta.media.0.codec.layout">mono</property>
  <property name="meta.media.0.codec.name">mp3float</property>
  <property name="meta.media.0.codec.long_name">MP3 (MPEG audio layer 3)</property>
  <property name="meta.media.0.codec.bit_rate">128000</property>
  <property name="seekable">1</property>
  <property name="audio_index">0</property>
  <property name="video_index">-1</property>
  <property name="astream">0</property>
  <property name="kdenlive:folderid">-1</property>
  <property name="kdenlive:id">28</property>
  <property name="kdenlive:control_uuid">{b31a57ba-42f1-407e-bfe5-70a4308f8f07}</property>
  <property name="kdenlive:clip_type">1</property>
  <property name="kdenlive:file_size">86099</property>
  <property name="kdenlive:file_hash">c1157bad4910ec49c7e4f9725d72e117</property>
  <property name="kdenlive:audio_max0">168</property>
  <property name="kdenlive:monitorPosition">0</property>
 </chain>
 <chain id="chain42" out="00:00:15.960">
  <property name="length">400</property>
  <property name="eof">pause</property>
  <property name="resource">bill-papa-bear-scene6.mp3</property>
  <property name="mlt_service">avformat</property>
  <property name="meta.media.nb_streams">1</property>
  <property name="meta.media.0.stream.type">audio</property>
  <property name="meta.media.0.codec.sample_fmt">fltp</property>
  <property name="meta.media.0.codec.sample_rate">44100</property>
  <property name="meta.media.0.codec.channels">1</property>
  <property name="meta.media.0.codec.layout">mono</property>
  <property name="meta.media.0.codec.name">mp3float</property>
  <property name="meta.media.0.codec.long_name">MP3 (MPEG audio layer 3)</property>
  <property name="meta.media.0.codec.bit_rate">128000</property>
  <property name="seekable">1</property>
  <property name="audio_index">0</property>
  <property name="video_index">-1</property>
  <property name="astream">0</property>
  <property name="kdenlive:folderid">-1</property>
  <property name="kdenlive:id">29</property>
  <property name="kdenlive:control_uuid">{1a35c42d-6673-4528-b1fb-e4ef297e1875}</property>
  <property name="kdenlive:clip_type">1</property>
  <property name="kdenlive:file_size">256209</property>
  <property name="kdenlive:file_hash">3ef058b5cf0d90da4387a0bdfbdbc197</property>
  <property name="kdenlive:audio_max0">164</property>
  <property name="kdenlive:monitorPosition">0</property>
 </chain>
 <chain id="chain43" out="00:00:09.920">
  <property name="length">249</property>
  <property name="eof">pause</property>
  <property name="resource">roger-colonel-scene6.mp3</property>
  <property name="mlt_service">avformat</property>
  <property name="meta.media.nb_streams">1</property>
  <property name="meta.media.0.stream.type">audio</property>
  <property name="meta.media.0.codec.sample_fmt">fltp</property>
  <property name="meta.media.0.codec.sample_rate">44100</property>
  <property name="meta.media.0.codec.channels">1</property>
  <property name="meta.media.0.codec.layout">mono</property>
  <property name="meta.media.0.codec.name">mp3float</property>
  <property name="meta.media.0.codec.long_name">MP3 (MPEG audio layer 3)</property>
  <property name="meta.media.0.codec.bit_rate">128000</property>
  <property name="seekable">1</property>
  <property name="audio_index">0</property>
  <property name="video_index">-1</property>
  <property name="astream">0</property>
  <property name="kdenlive:folderid">-1</property>
  <property name="kdenlive:id">30</property>
  <property name="kdenlive:control_uuid">{05a7a103-cdcb-451d-875a-67627bacbbf0}</property>
  <property name="kdenlive:clip_type">1</property>
  <property name="kdenlive:file_size">159660</property>
  <property name="kdenlive:file_hash">c773b6b64ea2553c17dca1e5f6cb35a0</property>
  <property name="kdenlive:audio_max0">166</property>
  <property name="kdenlive:monitorPosition">0</property>
 </chain>
 <chain id="chain44" out="00:00:25.600">
  <property name="length">641</property>
  <property name="eof">pause</property>
  <property name="resource">jessica-awacs-scene7.mp3</property>
  <property name="mlt_service">avformat</property>
  <property name="meta.media.nb_streams">1</property>
  <property name="meta.media.0.stream.type">audio</property>
  <property name="meta.media.0.codec.sample_fmt">fltp</property>
  <property name="meta.media.0.codec.sample_rate">44100</property>
  <property name="meta.media.0.codec.channels">1</property>
  <property name="meta.media.0.codec.layout">mono</property>
  <property name="meta.media.0.codec.name">mp3float</property>
  <property name="meta.media.0.codec.long_name">MP3 (MPEG audio layer 3)</property>
  <property name="meta.media.0.codec.bit_rate">128000</property>
  <property name="seekable">1</property>
  <property name="audio_index">0</property>
  <property name="video_index">-1</property>
  <property name="astream">0</property>
  <property name="kdenlive:folderid">-1</property>
  <property name="kdenlive:id">31</property>
  <property name="kdenlive:control_uuid">{3d2ae137-d802-4bc8-a784-e557f8babcc5}</property>
  <property name="kdenlive:clip_type">1</property>
  <property name="kdenlive:file_size">410017</property>
  <property name="kdenlive:file_hash">a3fb44be660b04a845df28b77e786da6</property>
  <property name="kdenlive:audio_max0">165</property>
  <property name="kdenlive:monitorPosition">0</property>
 </chain>
 <chain id="chain45" out="00:00:11.280">
  <property name="length">283</property>
  <property name="eof">pause</property>
  <property name="resource">scene8.mp3</property>
  <property name="mlt_service">avformat</property>
  <property name="meta.media.nb_streams">1</property>
  <property name="meta.media.0.stream.type">audio</property>
  <property name="meta.media.0.codec.sample_fmt">fltp</property>
  <property name="meta.media.0.codec.sample_rate">44100</property>
  <property name="meta.media.0.codec.channels">1</property>
  <property name="meta.media.0.codec.layout">mono</property>
  <property name="meta.media.0.codec.name">mp3float</property>
  <property name="meta.media.0.codec.long_name">MP3 (MPEG audio layer 3)</property>
  <property name="meta.media.0.codec.bit_rate">128000</property>
  <property name="seekable">1</property>
  <property name="audio_index">0</property>
  <property name="video_index">-1</property>
  <property name="astream">0</property>
  <property name="kdenlive:folderid">-1</property>
  <property name="kdenlive:id">32</property>
  <property name="kdenlive:control_uuid">{f19ba041-c4e0-476b-92f5-6ed163db60d2}</property>
  <property name="kdenlive:clip_type">1</property>
  <property name="kdenlive:file_size">180976</property>
  <property name="kdenlive:file_hash">779170adfbe276b6da43ec8204bbce5b</property>
  <property name="kdenlive:audio_max0">186</property>
  <property name="kdenlive:activeeffect">0</property>
  <filter id="filter95">
   <property name="mlt_service">avfilter.compand</property>
   <property name="kdenlive_id">avfilter.compand</property>
   <property name="av.attacks">0</property>
   <property name="av.decays">0.8</property>
   <property name="av.soft-knee">0.01</property>
   <property name="av.gain">0</property>
   <property name="av.volume">0</property>
   <property name="kdenlive:collapsed">0</property>
  </filter>
 </chain>
 <producer id="producer2" in="00:00:00.000" out="00:00:59.960">
  <property name="length">1500</property>
  <property name="eof">pause</property>
  <property name="resource"/>
  <property name="meta.media.progressive">1</property>
  <property name="aspect_ratio">1</property>
  <property name="seekable">1</property>
  <property name="mlt_service">kdenlivetitle</property>
  <property name="kdenlive:duration">00:01:00:00</property>
  <property name="kdenlive:clipname">Battle of Al...</property>
  <property name="xmldata">&lt;kdenlivetitle duration="1500" LC_NUMERIC="C" width="1920" height="1080" out="1499">
 &lt;item type="QGraphicsTextItem" z-index="0">
  &lt;position x="232" y="453">
   &lt;transform>1,0,0,0,1,0,0,0,1&lt;/transform>
  &lt;/position>
  &lt;content line-spacing="0" shadow="0;#64000000;3;3;3" font-underline="0" box-height="169" font-outline-color="0,0,0,255" font="Ubuntu" letter-spacing="20" font-pixel-size="150" font-italic="0" typewriter="0;2;1;0;0" alignment="1" font-weight="87" font-outline="0" box-width="1518.3" font-color="255,255,255,255">Battle of Alturia&lt;/content>
 &lt;/item>
 &lt;startviewport rect="0,0,1920,1080"/>
 &lt;endviewport rect="0,0,1920,1080"/>
 &lt;background color="0,0,0,0"/>
&lt;/kdenlivetitle>
</property>
  <property name="xml">was here</property>
  <property name="kdenlive:folderid">-1</property>
  <property name="kdenlive:id">33</property>
  <property name="kdenlive:clip_type">2</property>
  <property name="kdenlive:file_hash">fdf82be2f454a8a9892f1b6990227c6f</property>
  <property name="force_reload">0</property>
  <property name="meta.media.width">1920</property>
  <property name="meta.media.height">1080</property>
 </producer>
 <producer id="producer0" in="00:00:00.000" out="00:25:20.040">
  <property name="length">2147483647</property>
  <property name="eof">continue</property>
  <property name="resource">black</property>
  <property name="aspect_ratio">1</property>
  <property name="mlt_service">color</property>
  <property name="kdenlive:playlistid">black_track</property>
  <property name="mlt_image_format">rgba</property>
  <property name="set.test_audio">0</property>
 </producer>
 <playlist id="playlist0">
  <property name="kdenlive:audio_track">1</property>
 </playlist>
 <playlist id="playlist1">
  <property name="kdenlive:audio_track">1</property>
 </playlist>
 <tractor id="tractor0" in="00:00:00.000">
  <property name="kdenlive:audio_track">1</property>
  <property name="kdenlive:trackheight">110</property>
  <property name="kdenlive:timeline_active">1</property>
  <property name="kdenlive:collapsed">0</property>
  <property name="kdenlive:track_name">V4</property>
  <property name="kdenlive:thumbs_format"/>
  <property name="kdenlive:audio_rec"/>
  <track hide="video" producer="playlist0"/>
  <track hide="video" producer="playlist1"/>
  <filter id="filter5">
   <property name="window">75</property>
   <property name="max_gain">20dB</property>
   <property name="mlt_service">volume</property>
   <property name="internal_added">237</property>
   <property name="disable">1</property>
  </filter>
  <filter id="filter9">
   <property name="channel">-1</property>
   <property name="mlt_service">panner</property>
   <property name="internal_added">237</property>
   <property name="start">0.5</property>
   <property name="disable">1</property>
  </filter>
  <filter id="filter0">
   <property name="iec_scale">0</property>
   <property name="mlt_service">audiolevel</property>
   <property name="dbpeak">1</property>
   <property name="disable">0</property>
  </filter>
 </tractor>
 <chain id="chain0" out="00:00:18.200">
  <property name="length">456</property>
  <property name="eof">pause</property>
  <property name="resource">ElevenLabs_2024-11-18T20_56_50_Lloyd_gen_s50_sb75_se0_b_m2.mp3</property>
  <property name="mlt_service">avformat-novalidate</property>
  <property name="seekable">1</property>
  <property name="audio_index">0</property>
  <property name="video_index">-1</property>
  <property name="astream">0</property>
  <property name="kdenlive:folderid">-1</property>
  <property name="kdenlive:id">20</property>
  <property name="kdenlive:control_uuid">{44a9b97c-a85c-4cc4-ac88-5d372d3579a2}</property>
  <property name="kdenlive:clip_type">1</property>
  <property name="kdenlive:file_size">291735</property>
  <property name="kdenlive:file_hash">13004b00b9330ecd2ab046e415fb6f25</property>
  <property name="kdenlive:audio_max0">218</property>
  <property name="meta.media.nb_streams">1</property>
  <property name="meta.media.0.stream.type">audio</property>
  <property name="meta.media.0.codec.sample_fmt">fltp</property>
  <property name="meta.media.0.codec.sample_rate">44100</property>
  <property name="meta.media.0.codec.channels">1</property>
  <property name="meta.media.0.codec.layout">mono</property>
  <property name="meta.media.0.codec.name">mp3float</property>
  <property name="meta.media.0.codec.long_name">MP3 (MPEG audio layer 3)</property>
  <property name="meta.media.0.codec.bit_rate">128000</property>
  <property name="xml">was here</property>
  <property name="mute_on_pause">0</property>
  <property name="set.test_audio">0</property>
  <property name="set.test_image">1</property>
 </chain>
 <chain id="chain1" out="00:00:15.440">
  <property name="length">387</property>
  <property name="eof">pause</property>
  <property name="resource">scene2.mp3</property>
  <property name="mlt_service">avformat-novalidate</property>
  <property name="seekable">1</property>
  <property name="audio_index">0</property>
  <property name="video_index">-1</property>
  <property name="astream">0</property>
  <property name="kdenlive:folderid">-1</property>
  <property name="kdenlive:id">25</property>
  <property name="kdenlive:control_uuid">{6d40be71-0f34-45c1-9e0b-284188cdabde}</property>
  <property name="kdenlive:clip_type">1</property>
  <property name="kdenlive:file_size">247431</property>
  <property name="kdenlive:file_hash">98ab76fc02d39cfe95b6e07ae46d0bd4</property>
  <property name="kdenlive:audio_max0">202</property>
  <property name="meta.media.nb_streams">1</property>
  <property name="meta.media.0.stream.type">audio</property>
  <property name="meta.media.0.codec.sample_fmt">fltp</property>
  <property name="meta.media.0.codec.sample_rate">44100</property>
  <property name="meta.media.0.codec.channels">1</property>
  <property name="meta.media.0.codec.layout">mono</property>
  <property name="meta.media.0.codec.name">mp3float</property>
  <property name="meta.media.0.codec.long_name">MP3 (MPEG audio layer 3)</property>
  <property name="meta.media.0.codec.bit_rate">128000</property>
  <property name="xml">was here</property>
  <property name="mute_on_pause">0</property>
  <property name="set.test_audio">0</property>
  <property name="set.test_image">1</property>
 </chain>
 <chain id="chain2" out="00:00:04.920">
  <property name="length">124</property>
  <property name="eof">pause</property>
  <property name="resource">ford.mp3</property>
  <property name="mlt_service">avformat-novalidate</property>
  <property name="seekable">1</property>
  <property name="audio_index">0</property>
  <property name="video_index">-1</property>
  <property name="astream">0</property>
  <property name="kdenlive:folderid">-1</property>
  <property name="kdenlive:id">24</property>
  <property name="kdenlive:control_uuid">{79b0d2fc-1e6b-4406-b007-6c89ef4285fb}</property>
  <property name="kdenlive:clip_type">1</property>
  <property name="kdenlive:file_size">79412</property>
  <property name="kdenlive:file_hash">7db17ef9dd1847f260a6c4d52fe5838f</property>
  <property name="kdenlive:audio_max0">209</property>
  <property name="meta.media.nb_streams">1</property>
  <property name="meta.media.0.stream.type">audio</property>
  <property name="meta.media.0.codec.sample_fmt">fltp</property>
  <property name="meta.media.0.codec.sample_rate">44100</property>
  <property name="meta.media.0.codec.channels">1</property>
  <property name="meta.media.0.codec.layout">mono</property>
  <property name="meta.media.0.codec.name">mp3float</property>
  <property name="meta.media.0.codec.long_name">MP3 (MPEG audio layer 3)</property>
  <property name="meta.media.0.codec.bit_rate">128000</property>
  <property name="xml">was here</property>
  <property name="mute_on_pause">0</property>
  <property name="set.test_audio">0</property>
  <property name="set.test_image">1</property>
 </chain>
 <chain id="chain3" out="00:00:03.480">
  <property name="length">88</property>
  <property name="eof">pause</property>
  <property name="resource">WSO.mp3</property>
  <property name="mlt_service">avformat-novalidate</property>
  <property name="seekable">1</property>
  <property name="audio_index">0</property>
  <property name="video_index">-1</property>
  <property name="astream">0</property>
  <property name="kdenlive:folderid">-1</property>
  <property name="kdenlive:id">21</property>
  <property name="kdenlive:control_uuid">{0162c18e-d0a7-45e5-8010-93c68e430b33}</property>
  <property name="kdenlive:clip_type">1</property>
  <property name="kdenlive:file_size">56424</property>
  <property name="kdenlive:file_hash">acdcf88f2093d7d0160f05bf8538bf69</property>
  <property name="kdenlive:audio_max0">222</property>
  <property name="kdenlive:monitorPosition">0</property>
  <property name="meta.media.nb_streams">1</property>
  <property name="meta.media.0.stream.type">audio</property>
  <property name="meta.media.0.codec.sample_fmt">fltp</property>
  <property name="meta.media.0.codec.sample_rate">44100</property>
  <property name="meta.media.0.codec.channels">1</property>
  <property name="meta.media.0.codec.layout">mono</property>
  <property name="meta.media.0.codec.name">mp3float</property>
  <property name="meta.media.0.codec.long_name">MP3 (MPEG audio layer 3)</property>
  <property name="meta.media.0.codec.bit_rate">128000</property>
  <property name="xml">was here</property>
  <property name="mute_on_pause">0</property>
  <property name="set.test_audio">0</property>
  <property name="set.test_image">1</property>
 </chain>
 <chain id="chain4" out="00:00:04.960">
  <property name="length">125</property>
  <property name="eof">pause</property>
  <property name="resource">papa-bear.mp3</property>
  <property name="mlt_service">avformat-novalidate</property>
  <property name="seekable">1</property>
  <property name="audio_index">0</property>
  <property name="video_index">-1</property>
  <property name="astream">0</property>
  <property name="kdenlive:folderid">-1</property>
  <property name="kdenlive:id">22</property>
  <property name="kdenlive:control_uuid">{c7e0a4c8-1502-4bb8-8714-37cc5e600fe3}</property>
  <property name="kdenlive:clip_type">1</property>
  <property name="kdenlive:file_size">80248</property>
  <property name="kdenlive:file_hash">200012dfce78cf4e2472deca5cb38894</property>
  <property name="kdenlive:audio_max0">211</property>
  <property name="meta.media.nb_streams">1</property>
  <property name="meta.media.0.stream.type">audio</property>
  <property name="meta.media.0.codec.sample_fmt">fltp</property>
  <property name="meta.media.0.codec.sample_rate">44100</property>
  <property name="meta.media.0.codec.channels">1</property>
  <property name="meta.media.0.codec.layout">mono</property>
  <property name="meta.media.0.codec.name">mp3float</property>
  <property name="meta.media.0.codec.long_name">MP3 (MPEG audio layer 3)</property>
  <property name="meta.media.0.codec.bit_rate">128000</property>
  <property name="xml">was here</property>
  <property name="mute_on_pause">0</property>
  <property name="set.test_audio">0</property>
  <property name="set.test_image">1</property>
 </chain>
 <chain id="chain5" out="00:00:05.360">
  <property name="length">135</property>
  <property name="eof">pause</property>
  <property name="resource">raptor.mp3</property>
  <property name="mlt_service">avformat-novalidate</property>
  <property name="seekable">1</property>
  <property name="audio_index">0</property>
  <property name="video_index">-1</property>
  <property name="astream">0</property>
  <property name="kdenlive:folderid">-1</property>
  <property name="kdenlive:id">23</property>
  <property name="kdenlive:control_uuid">{19769ebd-593b-4387-9cc3-e417a068e4a8}</property>
  <property name="kdenlive:clip_type">1</property>
  <property name="kdenlive:file_size">86099</property>
  <property name="kdenlive:file_hash">f06a80845226cfd551d438de01943a67</property>
  <property name="kdenlive:audio_max0">209</property>
  <property name="meta.media.nb_streams">1</property>
  <property name="meta.media.0.stream.type">audio</property>
  <property name="meta.media.0.codec.sample_fmt">fltp</property>
  <property name="meta.media.0.codec.sample_rate">44100</property>
  <property name="meta.media.0.codec.channels">1</property>
  <property name="meta.media.0.codec.layout">mono</property>
  <property name="meta.media.0.codec.name">mp3float</property>
  <property name="meta.media.0.codec.long_name">MP3 (MPEG audio layer 3)</property>
  <property name="meta.media.0.codec.bit_rate">128000</property>
  <property name="xml">was here</property>
  <property name="mute_on_pause">0</property>
  <property name="set.test_audio">0</property>
  <property name="set.test_image">1</property>
 </chain>
 <chain id="chain6" out="00:00:13.280">
  <property name="length">333</property>
  <property name="eof">pause</property>
  <property name="resource">scene4.mp3</property>
  <property name="mlt_service">avformat-novalidate</property>
  <property name="seekable">1</property>
  <property name="audio_index">0</property>
  <property name="video_index">-1</property>
  <property name="astream">0</property>
  <property name="kdenlive:folderid">-1</property>
  <property name="kdenlive:id">26</property>
  <property name="kdenlive:control_uuid">{6ff87d6c-adbc-428d-b833-8fffd9fec6f0}</property>
  <property name="kdenlive:clip_type">1</property>
  <property name="kdenlive:file_size">213159</property>
  <property name="kdenlive:file_hash">06e57909886bed66bf527cc7fe01079c</property>
  <property name="kdenlive:audio_max0">198</property>
  <property name="meta.media.nb_streams">1</property>
  <property name="meta.media.0.stream.type">audio</property>
  <property name="meta.media.0.codec.sample_fmt">fltp</property>
  <property name="meta.media.0.codec.sample_rate">44100</property>
  <property name="meta.media.0.codec.channels">1</property>
  <property name="meta.media.0.codec.layout">mono</property>
  <property name="meta.media.0.codec.name">mp3float</property>
  <property name="meta.media.0.codec.long_name">MP3 (MPEG audio layer 3)</property>
  <property name="meta.media.0.codec.bit_rate">128000</property>
  <property name="xml">was here</property>
  <property name="mute_on_pause">0</property>
  <property name="set.test_audio">0</property>
  <property name="set.test_image">1</property>
 </chain>
 <chain id="chain7" out="00:00:10.920">
  <property name="length">274</property>
  <property name="eof">pause</property>
  <property name="resource">scene5.mp3</property>
  <property name="mlt_service">avformat-novalidate</property>
  <property name="seekable">1</property>
  <property name="audio_index">0</property>
  <property name="video_index">-1</property>
  <property name="astream">0</property>
  <property name="kdenlive:folderid">-1</property>
  <property name="kdenlive:id">27</property>
  <property name="kdenlive:control_uuid">{eca3c24e-db70-4b49-8553-39797717db7e}</property>
  <property name="kdenlive:clip_type">1</property>
  <property name="kdenlive:file_size">175124</property>
  <property name="kdenlive:file_hash">19b0e6f226b98b6a2fd10c9a10c6a7b6</property>
  <property name="kdenlive:audio_max0">199</property>
  <property name="meta.media.nb_streams">1</property>
  <property name="meta.media.0.stream.type">audio</property>
  <property name="meta.media.0.codec.sample_fmt">fltp</property>
  <property name="meta.media.0.codec.sample_rate">44100</property>
  <property name="meta.media.0.codec.channels">1</property>
  <property name="meta.media.0.codec.layout">mono</property>
  <property name="meta.media.0.codec.name">mp3float</property>
  <property name="meta.media.0.codec.long_name">MP3 (MPEG audio layer 3)</property>
  <property name="meta.media.0.codec.bit_rate">128000</property>
  <property name="xml">was here</property>
  <property name="mute_on_pause">0</property>
  <property name="set.test_audio">0</property>
  <property name="set.test_image">1</property>
  <filter id="filter1">
   <property name="mlt_service">avfilter.compand</property>
   <property name="kdenlive_id">avfilter.compand</property>
   <property name="av.attacks">0</property>
   <property name="av.decays">0.8</property>
   <property name="av.soft-knee">0.01</property>
   <property name="av.gain">0</property>
   <property name="av.volume">0</property>
  </filter>
 </chain>
 <chain id="chain8" out="00:00:05.360">
  <property name="length">135</property>
  <property name="eof">pause</property>
  <property name="resource">chris-ford-scene6.mp3</property>
  <property name="mlt_service">avformat-novalidate</property>
  <property name="seekable">1</property>
  <property name="audio_index">0</property>
  <property name="video_index">-1</property>
  <property name="astream">0</property>
  <property name="kdenlive:folderid">-1</property>
  <property name="kdenlive:id">28</property>
  <property name="kdenlive:control_uuid">{b31a57ba-42f1-407e-bfe5-70a4308f8f07}</property>
  <property name="kdenlive:clip_type">1</property>
  <property name="kdenlive:file_size">86099</property>
  <property name="kdenlive:file_hash">c1157bad4910ec49c7e4f9725d72e117</property>
  <property name="kdenlive:audio_max0">168</property>
  <property name="meta.media.nb_streams">1</property>
  <property name="meta.media.0.stream.type">audio</property>
  <property name="meta.media.0.codec.sample_fmt">fltp</property>
  <property name="meta.media.0.codec.sample_rate">44100</property>
  <property name="meta.media.0.codec.channels">1</property>
  <property name="meta.media.0.codec.layout">mono</property>
  <property name="meta.media.0.codec.name">mp3float</property>
  <property name="meta.media.0.codec.long_name">MP3 (MPEG audio layer 3)</property>
  <property name="meta.media.0.codec.bit_rate">128000</property>
  <property name="xml">was here</property>
  <property name="mute_on_pause">0</property>
  <property name="set.test_audio">0</property>
  <property name="set.test_image">1</property>
 </chain>
 <chain id="chain9" out="00:00:15.960">
  <property name="length">400</property>
  <property name="eof">pause</property>
  <property name="resource">bill-papa-bear-scene6.mp3</property>
  <property name="mlt_service">avformat-novalidate</property>
  <property name="seekable">1</property>
  <property name="audio_index">0</property>
  <property name="video_index">-1</property>
  <property name="astream">0</property>
  <property name="kdenlive:folderid">-1</property>
  <property name="kdenlive:id">29</property>
  <property name="kdenlive:control_uuid">{1a35c42d-6673-4528-b1fb-e4ef297e1875}</property>
  <property name="kdenlive:clip_type">1</property>
  <property name="kdenlive:file_size">256209</property>
  <property name="kdenlive:file_hash">3ef058b5cf0d90da4387a0bdfbdbc197</property>
  <property name="kdenlive:audio_max0">164</property>
  <property name="meta.media.nb_streams">1</property>
  <property name="meta.media.0.stream.type">audio</property>
  <property name="meta.media.0.codec.sample_fmt">fltp</property>
  <property name="meta.media.0.codec.sample_rate">44100</property>
  <property name="meta.media.0.codec.channels">1</property>
  <property name="meta.media.0.codec.layout">mono</property>
  <property name="meta.media.0.codec.name">mp3float</property>
  <property name="meta.media.0.codec.long_name">MP3 (MPEG audio layer 3)</property>
  <property name="meta.media.0.codec.bit_rate">128000</property>
  <property name="xml">was here</property>
  <property name="mute_on_pause">0</property>
  <property name="set.test_audio">0</property>
  <property name="set.test_image">1</property>
 </chain>
 <chain id="chain10" out="00:00:09.920">
  <property name="length">249</property>
  <property name="eof">pause</property>
  <property name="resource">roger-colonel-scene6.mp3</property>
  <property name="mlt_service">avformat-novalidate</property>
  <property name="seekable">1</property>
  <property name="audio_index">0</property>
  <property name="video_index">-1</property>
  <property name="astream">0</property>
  <property name="kdenlive:folderid">-1</property>
  <property name="kdenlive:id">30</property>
  <property name="kdenlive:control_uuid">{05a7a103-cdcb-451d-875a-67627bacbbf0}</property>
  <property name="kdenlive:clip_type">1</property>
  <property name="kdenlive:file_size">159660</property>
  <property name="kdenlive:file_hash">c773b6b64ea2553c17dca1e5f6cb35a0</property>
  <property name="kdenlive:audio_max0">166</property>
  <property name="meta.media.nb_streams">1</property>
  <property name="meta.media.0.stream.type">audio</property>
  <property name="meta.media.0.codec.sample_fmt">fltp</property>
  <property name="meta.media.0.codec.sample_rate">44100</property>
  <property name="meta.media.0.codec.channels">1</property>
  <property name="meta.media.0.codec.layout">mono</property>
  <property name="meta.media.0.codec.name">mp3float</property>
  <property name="meta.media.0.codec.long_name">MP3 (MPEG audio layer 3)</property>
  <property name="meta.media.0.codec.bit_rate">128000</property>
  <property name="xml">was here</property>
  <property name="mute_on_pause">0</property>
  <property name="set.test_audio">0</property>
  <property name="set.test_image">1</property>
 </chain>
 <chain id="chain16" out="00:00:25.600">
  <property name="length">641</property>
  <property name="eof">pause</property>
  <property name="resource">jessica-awacs-scene7.mp3</property>
  <property name="mlt_service">avformat-novalidate</property>
  <property name="seekable">1</property>
  <property name="audio_index">0</property>
  <property name="video_index">-1</property>
  <property name="astream">0</property>
  <property name="kdenlive:folderid">-1</property>
  <property name="kdenlive:id">31</property>
  <property name="kdenlive:control_uuid">{3d2ae137-d802-4bc8-a784-e557f8babcc5}</property>
  <property name="kdenlive:clip_type">1</property>
  <property name="kdenlive:file_size">410017</property>
  <property name="kdenlive:file_hash">a3fb44be660b04a845df28b77e786da6</property>
  <property name="kdenlive:audio_max0">165</property>
  <property name="meta.media.nb_streams">1</property>
  <property name="meta.media.0.stream.type">audio</property>
  <property name="meta.media.0.codec.sample_fmt">fltp</property>
  <property name="meta.media.0.codec.sample_rate">44100</property>
  <property name="meta.media.0.codec.channels">1</property>
  <property name="meta.media.0.codec.layout">mono</property>
  <property name="meta.media.0.codec.name">mp3float</property>
  <property name="meta.media.0.codec.long_name">MP3 (MPEG audio layer 3)</property>
  <property name="meta.media.0.codec.bit_rate">128000</property>
  <property name="xml">was here</property>
  <property name="mute_on_pause">0</property>
  <property name="set.test_audio">0</property>
  <property name="set.test_image">1</property>
 </chain>
 <chain id="chain17" out="00:00:11.280">
  <property name="length">283</property>
  <property name="eof">pause</property>
  <property name="resource">scene8.mp3</property>
  <property name="mlt_service">avformat-novalidate</property>
  <property name="seekable">1</property>
  <property name="audio_index">0</property>
  <property name="video_index">-1</property>
  <property name="astream">0</property>
  <property name="kdenlive:folderid">-1</property>
  <property name="kdenlive:id">32</property>
  <property name="kdenlive:control_uuid">{f19ba041-c4e0-476b-92f5-6ed163db60d2}</property>
  <property name="kdenlive:clip_type">1</property>
  <property name="kdenlive:file_size">180976</property>
  <property name="kdenlive:file_hash">779170adfbe276b6da43ec8204bbce5b</property>
  <property name="kdenlive:audio_max0">186</property>
  <property name="meta.media.nb_streams">1</property>
  <property name="meta.media.0.stream.type">audio</property>
  <property name="meta.media.0.codec.sample_fmt">fltp</property>
  <property name="meta.media.0.codec.sample_rate">44100</property>
  <property name="meta.media.0.codec.channels">1</property>
  <property name="meta.media.0.codec.layout">mono</property>
  <property name="meta.media.0.codec.name">mp3float</property>
  <property name="meta.media.0.codec.long_name">MP3 (MPEG audio layer 3)</property>
  <property name="meta.media.0.codec.bit_rate">128000</property>
  <property name="xml">was here</property>
  <property name="mute_on_pause">0</property>
  <property name="set.test_audio">0</property>
  <property name="set.test_image">1</property>
  <filter id="filter2">
   <property name="mlt_service">avfilter.compand</property>
   <property name="kdenlive_id">avfilter.compand</property>
   <property name="av.attacks">0</property>
   <property name="av.decays">0.8</property>
   <property name="av.soft-knee">0.01</property>
   <property name="av.gain">0</property>
   <property name="av.volume">0</property>
  </filter>
 </chain>
 <playlist id="playlist2">
  <property name="kdenlive:audio_track">1</property>
  <blank length="00:00:03.160"/>
  <entry producer="chain0" in="00:00:00.000" out="00:00:18.200">
   <property name="kdenlive:id">20</property>
   <filter id="filter3">
    <property name="window">75</property>
    <property name="max_gain">20dB</property>
    <property name="level">00:00:00.000=0</property>
    <property name="mlt_service">volume</property>
    <property name="kdenlive_id">volume</property>
    <property name="kdenlive:collapsed">0</property>
   </filter>
   <filter id="filter4">
    <property name="mlt_service">avfilter.compand</property>
    <property name="kdenlive_id">avfilter.compand</property>
    <property name="av.attacks">0</property>
    <property name="av.decays">0.8</property>
    <property name="av.soft-knee">0.01</property>
    <property name="av.gain">0</property>
    <property name="av.volume">0</property>
    <property name="kdenlive:collapsed">0</property>
    <property name="disable">0</property>
   </filter>
  </entry>
  <blank length="00:00:06.120"/>
  <entry producer="chain1" in="00:00:00.000" out="00:00:15.440">
   <property name="kdenlive:id">25</property>
   <filter id="filter6">
    <property name="mlt_service">avfilter.compand</property>
    <property name="kdenlive_id">avfilter.compand</property>
    <property name="av.attacks">0</property>
    <property name="av.decays">0.8</property>
    <property name="av.soft-knee">0.01</property>
    <property name="av.gain">0</property>
    <property name="av.volume">0</property>
    <property name="kdenlive:collapsed">0</property>
   </filter>
  </entry>
  <blank length="00:00:05.160"/>
  <entry producer="chain2" in="00:00:00.000" out="00:00:04.920">
   <property name="kdenlive:id">24</property>
   <filter id="filter7">
    <property name="mlt_service">avfilter.compand</property>
    <property name="kdenlive_id">avfilter.compand</property>
    <property name="av.attacks">0</property>
    <property name="av.decays">0.8</property>
    <property name="av.soft-knee">0.01</property>
    <property name="av.gain">0</property>
    <property name="av.volume">0</property>
    <property name="kdenlive:collapsed">0</property>
   </filter>
  </entry>
  <blank length="00:00:03.240"/>
  <entry producer="chain3" in="00:00:00.000" out="00:00:03.480">
   <property name="kdenlive:id">21</property>
   <filter id="filter8">
    <property name="mlt_service">avfilter.compand</property>
    <property name="kdenlive_id">avfilter.compand</property>
    <property name="av.attacks">0</property>
    <property name="av.decays">0.8</property>
    <property name="av.soft-knee">0.01</property>
    <property name="av.gain">0</property>
    <property name="av.volume">0</property>
    <property name="kdenlive:collapsed">0</property>
   </filter>
  </entry>
  <blank length="00:00:03.120"/>
  <entry producer="chain4" in="00:00:00.000" out="00:00:04.960">
   <property name="kdenlive:id">22</property>
   <filter id="filter10">
    <property name="mlt_service">avfilter.compand</property>
    <property name="kdenlive_id">avfilter.compand</property>
    <property name="av.attacks">0</property>
    <property name="av.decays">0.8</property>
    <property name="av.soft-knee">0.01</property>
    <property name="av.gain">0</property>
    <property name="av.volume">0</property>
    <property name="kdenlive:collapsed">0</property>
   </filter>
  </entry>
  <blank length="00:00:03.120"/>
  <entry producer="chain5" in="00:00:00.000" out="00:00:05.360">
   <property name="kdenlive:id">23</property>
   <filter id="filter11">
    <property name="mlt_service">avfilter.compand</property>
    <property name="kdenlive_id">avfilter.compand</property>
    <property name="av.attacks">0</property>
    <property name="av.decays">0.8</property>
    <property name="av.soft-knee">0.01</property>
    <property name="av.gain">0</property>
    <property name="av.volume">0</property>
    <property name="kdenlive:collapsed">0</property>
   </filter>
  </entry>
  <blank length="00:00:06.040"/>
  <entry producer="chain6" in="00:00:00.000" out="00:00:13.280">
   <property name="kdenlive:id">26</property>
   <filter id="filter12">
    <property name="mlt_service">avfilter.compand</property>
    <property name="kdenlive_id">avfilter.compand</property>
    <property name="av.attacks">0</property>
    <property name="av.decays">0.8</property>
    <property name="av.soft-knee">0.01</property>
    <property name="av.gain">0</property>
    <property name="av.volume">0</property>
    <property name="kdenlive:collapsed">0</property>
   </filter>
  </entry>
  <blank length="00:00:08.320"/>
  <entry producer="chain7" in="00:00:00.000" out="00:00:10.920">
   <property name="kdenlive:id">27</property>
   <filter id="filter13">
    <property name="mlt_service">avfilter.compand</property>
    <property name="kdenlive_id">avfilter.compand</property>
    <property name="av.attacks">0</property>
    <property name="av.decays">0.8</property>
    <property name="av.soft-knee">0.01</property>
    <property name="av.gain">0</property>
    <property name="av.volume">0</property>
    <property name="kdenlive:collapsed">0</property>
   </filter>
  </entry>
  <blank length="00:00:10.040"/>
  <entry producer="chain8" in="00:00:00.000" out="00:00:05.360">
   <property name="kdenlive:id">28</property>
   <filter id="filter14">
    <property name="mlt_service">avfilter.compand</property>
    <property name="kdenlive_id">avfilter.compand</property>
    <property name="av.attacks">0</property>
    <property name="av.decays">0.8</property>
    <property name="av.soft-knee">0.01</property>
    <property name="av.gain">0</property>
    <property name="av.volume">0</property>
    <property name="kdenlive:collapsed">0</property>
   </filter>
  </entry>
  <blank length="00:00:04.400"/>
  <entry producer="chain9" in="00:00:11.080" out="00:00:15.960">
   <property name="kdenlive:id">29</property>
   <filter id="filter15">
    <property name="mlt_service">avfilter.compand</property>
    <property name="kdenlive_id">avfilter.compand</property>
    <property name="av.attacks">0</property>
    <property name="av.decays">0.8</property>
    <property name="av.soft-knee">0.01</property>
    <property name="av.gain">0</property>
    <property name="av.volume">0</property>
    <property name="kdenlive:collapsed">0</property>
   </filter>
  </entry>
  <blank length="00:00:04.600"/>
  <entry producer="chain10" in="00:00:05.840" out="00:00:09.920">
   <property name="kdenlive:id">30</property>
   <filter id="filter16">
    <property name="mlt_service">avfilter.compand</property>
    <property name="kdenlive_id">avfilter.compand</property>
    <property name="av.attacks">0</property>
    <property name="av.decays">0.8</property>
    <property name="av.soft-knee">0.01</property>
    <property name="av.gain">0</property>
    <property name="av.volume">0</property>
    <property name="kdenlive:collapsed">0</property>
   </filter>
  </entry>
  <blank length="00:01:17.200"/>
  <entry producer="chain16" in="00:00:17.640" out="00:00:25.600">
   <property name="kdenlive:id">31</property>
   <filter id="filter17">
    <property name="mlt_service">avfilter.compand</property>
    <property name="kdenlive_id">avfilter.compand</property>
    <property name="av.attacks">0</property>
    <property name="av.decays">0.8</property>
    <property name="av.soft-knee">0.01</property>
    <property name="av.gain">0</property>
    <property name="av.volume">0</property>
    <property name="kdenlive:collapsed">0</property>
   </filter>
  </entry>
  <blank length="00:00:30.480"/>
  <entry producer="chain17" in="00:00:00.000" out="00:00:11.280">
   <property name="kdenlive:id">32</property>
   <filter id="filter18">
    <property name="mlt_service">avfilter.compand</property>
    <property name="kdenlive_id">avfilter.compand</property>
    <property name="av.attacks">0</property>
    <property name="av.decays">0.8</property>
    <property name="av.soft-knee">0.01</property>
    <property name="av.gain">0</property>
    <property name="av.volume">0</property>
    <property name="kdenlive:collapsed">0</property>
   </filter>
  </entry>
 </playlist>
 <playlist id="playlist3">
  <property name="kdenlive:audio_track">1</property>
 </playlist>
 <tractor id="tractor1" in="00:00:00.000" out="00:04:35.600">
  <property name="kdenlive:audio_track">1</property>
  <property name="kdenlive:trackheight">110</property>
  <property name="kdenlive:timeline_active">1</property>
  <property name="kdenlive:collapsed">0</property>
  <property name="kdenlive:track_name">V4</property>
  <property name="kdenlive:thumbs_format"/>
  <property name="kdenlive:audio_rec"/>
  <track hide="video" producer="playlist2"/>
  <track hide="video" producer="playlist3"/>
  <filter id="filter19">
   <property name="window">75</property>
   <property name="max_gain">20dB</property>
   <property name="mlt_service">volume</property>
   <property name="internal_added">237</property>
   <property name="disable">1</property>
  </filter>
  <filter id="filter20">
   <property name="channel">-1</property>
   <property name="mlt_service">panner</property>
   <property name="internal_added">237</property>
   <property name="start">0.5</property>
   <property name="disable">1</property>
  </filter>
  <filter id="filter21">
   <property name="iec_scale">0</property>
   <property name="mlt_service">audiolevel</property>
   <property name="dbpeak">1</property>
   <property name="disable">0</property>
  </filter>
 </tractor>
 <chain id="chain18" out="00:03:41.920">
  <property name="length">5549</property>
  <property name="eof">pause</property>
  <property name="resource">ES_In Night's Embrace - Christoffer Moe Ditlevsen (Version c34b90d2) - fullmix_high_quality.mp3</property>
  <property name="mlt_service">avformat-novalidate</property>
  <property name="seekable">1</property>
  <property name="audio_index">0</property>
  <property name="video_index">-1</property>
  <property name="astream">0</property>
  <property name="kdenlive:folderid">-1</property>
  <property name="kdenlive:id">18</property>
  <property name="kdenlive:control_uuid">{67fd4a5e-2ee6-4497-a19e-8c9df8b9587f}</property>
  <property name="kdenlive:clip_type">1</property>
  <property name="kdenlive:file_size">4257360</property>
  <property name="kdenlive:file_hash">f48c4a85c23809562155e03e7d0b21b5</property>
  <property name="kdenlive:audio_max0">231</property>
  <property name="meta.media.nb_streams">1</property>
  <property name="meta.media.0.stream.type">audio</property>
  <property name="meta.media.0.codec.sample_fmt">fltp</property>
  <property name="meta.media.0.codec.sample_rate">48000</property>
  <property name="meta.media.0.codec.channels">2</property>
  <property name="meta.media.0.codec.layout">stereo</property>
  <property name="meta.media.0.codec.name">mp3float</property>
  <property name="meta.media.0.codec.long_name">MP3 (MPEG audio layer 3)</property>
  <property name="meta.media.0.codec.bit_rate">153435</property>
  <property name="meta.attr.0.stream.encoder.markup">LAME3.100</property>
  <property name="xml">was here</property>
  <property name="mute_on_pause">0</property>
  <property name="set.test_audio">0</property>
  <property name="set.test_image">1</property>
 </chain>
 <chain id="chain22" out="00:01:25.440">
  <property name="length">2137</property>
  <property name="eof">pause</property>
  <property name="resource">ES_Personal Vendetta - Edgar Hopp (Version d95a2db8) - fullmix_high_quality.mp3</property>
  <property name="mlt_service">avformat-novalidate</property>
  <property name="seekable">1</property>
  <property name="audio_index">0</property>
  <property name="video_index">-1</property>
  <property name="astream">0</property>
  <property name="kdenlive:folderid">-1</property>
  <property name="kdenlive:id">19</property>
  <property name="kdenlive:control_uuid">{85516cfb-4505-4e6a-8863-d1b2aa8bacdc}</property>
  <property name="kdenlive:clip_type">1</property>
  <property name="kdenlive:file_size">1733664</property>
  <property name="kdenlive:file_hash">3f07f0a0d6b2c851c2378393c2243875</property>
  <property name="kdenlive:audio_max0">242</property>
  <property name="meta.media.nb_streams">1</property>
  <property name="meta.media.0.stream.type">audio</property>
  <property name="meta.media.0.codec.sample_fmt">fltp</property>
  <property name="meta.media.0.codec.sample_rate">48000</property>
  <property name="meta.media.0.codec.channels">2</property>
  <property name="meta.media.0.codec.layout">stereo</property>
  <property name="meta.media.0.codec.name">mp3float</property>
  <property name="meta.media.0.codec.long_name">MP3 (MPEG audio layer 3)</property>
  <property name="meta.media.0.codec.bit_rate">162283</property>
  <property name="meta.attr.0.stream.encoder.markup">LAME3.100</property>
  <property name="xml">was here</property>
  <property name="mute_on_pause">0</property>
  <property name="set.test_audio">0</property>
  <property name="set.test_image">1</property>
 </chain>
 <playlist id="playlist4">
  <property name="kdenlive:audio_track">1</property>
  <entry producer="chain18" in="00:00:00.000" out="00:03:40.320">
   <property name="kdenlive:id">18</property>
   <property name="kdenlive:activeeffect">1</property>
   <filter id="filter22" in="00:03:37.320" out="00:03:40.320">
    <property name="window">75</property>
    <property name="max_gain">20dB</property>
    <property name="mlt_service">volume</property>
    <property name="kdenlive_id">fadeout</property>
    <property name="gain">1</property>
    <property name="end">0</property>
    <property name="kdenlive:collapsed">0</property>
   </filter>
   <filter id="filter23">
    <property name="window">75</property>
    <property name="max_gain">20dB</property>
    <property name="level">00:00:00.000=-10</property>
    <property name="mlt_service">volume</property>
    <property name="kdenlive_id">volume</property>
    <property name="kdenlive:collapsed">0</property>
   </filter>
  </entry>
  <entry producer="chain22" in="00:00:00.000" out="00:01:25.440">
   <property name="kdenlive:id">19</property>
   <filter id="filter24">
    <property name="window">75</property>
    <property name="max_gain">20dB</property>
    <property name="level">00:00:00.000=-10;00:00:55.240=-10;00:01:00.200=0</property>
    <property name="mlt_service">volume</property>
    <property name="kdenlive_id">volume</property>
    <property name="kdenlive:collapsed">0</property>
   </filter>
  </entry>
 </playlist>
 <playlist id="playlist5">
  <property name="kdenlive:audio_track">1</property>
 </playlist>
 <tractor id="tractor2" in="00:00:00.000" out="00:05:05.800">
  <property name="kdenlive:audio_track">1</property>
  <property name="kdenlive:trackheight">110</property>
  <property name="kdenlive:timeline_active">1</property>
  <property name="kdenlive:collapsed">0</property>
  <property name="kdenlive:thumbs_format"/>
  <property name="kdenlive:audio_rec"/>
  <track hide="video" producer="playlist4"/>
  <track hide="video" producer="playlist5"/>
  <filter id="filter25">
   <property name="window">75</property>
   <property name="max_gain">20dB</property>
   <property name="mlt_service">volume</property>
   <property name="internal_added">237</property>
   <property name="disable">1</property>
  </filter>
  <filter id="filter26">
   <property name="channel">-1</property>
   <property name="mlt_service">panner</property>
   <property name="internal_added">237</property>
   <property name="start">0.5</property>
   <property name="disable">1</property>
  </filter>
  <filter id="filter27">
   <property name="iec_scale">0</property>
   <property name="mlt_service">audiolevel</property>
   <property name="dbpeak">1</property>
   <property name="disable">0</property>
  </filter>
 </tractor>
 <chain id="chain23" out="00:00:59.960">
  <property name="length">1500</property>
  <property name="eof">pause</property>
  <property name="resource">scene8.webp</property>
  <property name="mlt_service">avformat-novalidate</property>
  <property name="seekable">1</property>
  <property name="format">3</property>
  <property name="audio_index">-1</property>
  <property name="video_index">0</property>
  <property name="vstream">0</property>
  <property name="kdenlive:folderid">-1</property>
  <property name="kdenlive:id">17</property>
  <property name="mute_on_pause">0</property>
  <property name="kdenlive:clip_type">2</property>
  <property name="kdenlive:file_size">0</property>
  <property name="meta.media.nb_streams">1</property>
  <property name="meta.media.0.stream.type">video</property>
  <property name="meta.media.0.stream.frame_rate">25</property>
  <property name="meta.media.0.stream.sample_aspect_ratio">0</property>
  <property name="meta.media.0.codec.width">1024</property>
  <property name="meta.media.0.codec.height">1024</property>
  <property name="meta.media.0.codec.rotate">0</property>
  <property name="meta.media.0.codec.pix_fmt">yuv420p</property>
  <property name="meta.media.0.codec.sample_aspect_ratio">0</property>
  <property name="meta.media.0.codec.colorspace">601</property>
  <property name="meta.media.0.codec.name">webp</property>
  <property name="meta.media.0.codec.long_name">WebP image</property>
  <property name="meta.media.0.codec.bit_rate">0</property>
  <property name="meta.media.sample_aspect_num">1</property>
  <property name="meta.media.sample_aspect_den">1</property>
  <property name="meta.media.frame_rate_num">25</property>
  <property name="meta.media.frame_rate_den">1</property>
  <property name="meta.media.colorspace">601</property>
  <property name="meta.media.color_trc">2</property>
  <property name="meta.media.has_b_frames">0</property>
  <property name="meta.media.width">1024</property>
  <property name="meta.media.height">1024</property>
  <property name="meta.media.color_range">mpeg</property>
  <property name="xml">was here</property>
  <property name="meta.media.top_field_first">0</property>
  <property name="meta.media.progressive">1</property>
  <property name="set.test_audio">1</property>
  <property name="set.test_image">0</property>
  <property name="kdenlive:control_uuid">{9d01c918-545d-4e3a-a592-bf20b4d07a50}</property>
  <property name="meta.media.aspect_ratio">1</property>
 </chain>
 <playlist id="playlist6">
  <blank length="00:00:54.080"/>
  <entry producer="producer3" in="00:00:00.000" out="00:00:25.360">
   <property name="kdenlive:id">8</property>
   <filter id="filter29">
    <property name="background">colour:0</property>
    <property name="mlt_service">affine</property>
    <property name="kdenlive_id">pan_zoom</property>
    <property name="transition.rect">00:00:00.000=961 0 960 540</property>
    <property name="transition.distort">0</property>
    <property name="use_normalised">0</property>
    <property name="producer.resource">0x00000000</property>
    <property name="transition.repeat_off">1</property>
    <property name="transition.mirror_off">1</property>
    <property name="kdenlive:collapsed">0</property>
   </filter>
   <filter id="filter28" out="00:00:03.000">
    <property name="start">1</property>
    <property name="level">1</property>
    <property name="mlt_service">brightness</property>
    <property name="kdenlive_id">fade_from_black</property>
    <property name="alpha">00:00:00.000=0;00:00:03.000=1</property>
    <property name="kdenlive:collapsed">0</property>
   </filter>
   <filter id="filter30" in="00:00:22.400" out="00:00:25.400">
    <property name="start">1</property>
    <property name="level">1</property>
    <property name="mlt_service">brightness</property>
    <property name="kdenlive_id">fade_to_black</property>
    <property name="alpha">00:00:00.000=1;00:00:03.000=0</property>
    <property name="kdenlive:collapsed">0</property>
   </filter>
  </entry>
  <blank length="00:03:30.840"/>
  <entry producer="chain23" in="00:00:00.000" out="00:00:10.440">
   <property name="kdenlive:id">17</property>
   <filter id="filter31" out="00:00:03.000">
    <property name="start">1</property>
    <property name="level">1</property>
    <property name="mlt_service">brightness</property>
    <property name="kdenlive_id">fade_from_black</property>
    <property name="alpha">00:00:00.000=0;00:00:03.000=1</property>
    <property name="kdenlive:collapsed">0</property>
   </filter>
   <filter id="filter32" in="00:00:07.440" out="00:00:10.440">
    <property name="start">1</property>
    <property name="level">1</property>
    <property name="mlt_service">brightness</property>
    <property name="kdenlive_id">fade_to_black</property>
    <property name="alpha">00:00:00.000=1;00:00:03.000=0</property>
    <property name="kdenlive:collapsed">0</property>
   </filter>
  </entry>
  <entry producer="producer2" in="00:00:00.000" out="00:00:19.200">
   <property name="kdenlive:id">33</property>
   <filter id="filter33">
    <property name="background">colour:0</property>
    <property name="mlt_service">affine</property>
    <property name="kdenlive_id">pan_zoom</property>
    <property name="transition.rect">00:00:00.000~=-47040 -26460 96000 54000;00:00:02.080~=-33005 -18565 67929 38210;00:00:04.040~=-22944 -12906 47808 26892;00:00:06.120~=-15744 -8856 33408 18792;00:00:08.120~=-10579 -5950 23078 12981;00:00:10.200~=-6883 -3871 15686 8823;00:00:12.200~=-4234 -2381 10387 5842;00:00:14.320~=-2333 -1312 6585 3704;00:00:16.640~=-969 -545 3859 2170;00:00:19.200~=0 0 1920 1080</property>
    <property name="transition.distort">0</property>
    <property name="use_normalised">0</property>
    <property name="producer.resource">0x00000000</property>
    <property name="transition.repeat_off">1</property>
    <property name="transition.mirror_off">1</property>
    <property name="kdenlive:collapsed">0</property>
    <property name="disable">0</property>
   </filter>
   <filter id="filter34" out="00:00:03.000">
    <property name="start">1</property>
    <property name="level">1</property>
    <property name="mlt_service">brightness</property>
    <property name="kdenlive_id">fade_from_black</property>
    <property name="alpha">00:00:00.000=0;00:00:03.000=1</property>
    <property name="kdenlive:collapsed">0</property>
   </filter>
   <filter id="filter35" in="00:00:16.200" out="00:00:19.200">
    <property name="start">1</property>
    <property name="level">1</property>
    <property name="mlt_service">brightness</property>
    <property name="kdenlive_id">fade_to_black</property>
    <property name="alpha">00:00:00.000=1;00:00:03.000=0</property>
    <property name="kdenlive:collapsed">0</property>
   </filter>
  </entry>
 </playlist>
 <playlist id="playlist7"/>
 <tractor id="tractor3" in="00:00:00.000" out="00:05:20.000">
  <property name="kdenlive:trackheight">110</property>
  <property name="kdenlive:timeline_active">1</property>
  <property name="kdenlive:collapsed">0</property>
  <property name="kdenlive:thumbs_format"/>
  <property name="kdenlive:audio_rec"/>
  <track hide="audio" producer="playlist6"/>
  <track hide="audio" producer="playlist7"/>
 </tractor>
 <chain id="chain24" out="00:00:59.960">
  <property name="length">1500</property>
  <property name="eof">pause</property>
  <property name="resource">qimage:/home/furmountain/repos/battle-of-alturia/m1/scene2.webp</property>
  <property name="mlt_service">avformat-novalidate</property>
  <property name="seekable">1</property>
  <property name="format">3</property>
  <property name="audio_index">-1</property>
  <property name="video_index">0</property>
  <property name="vstream">0</property>
  <property name="kdenlive:folderid">-1</property>
  <property name="kdenlive:id">34</property>
  <property name="mute_on_pause">0</property>
  <property name="kdenlive:clip_type">2</property>
  <property name="kdenlive:file_size">0</property>
  <property name="meta.media.nb_streams">1</property>
  <property name="meta.media.0.stream.type">video</property>
  <property name="meta.media.0.stream.frame_rate">25</property>
  <property name="meta.media.0.stream.sample_aspect_ratio">0</property>
  <property name="meta.media.0.codec.width">1024</property>
  <property name="meta.media.0.codec.height">1024</property>
  <property name="meta.media.0.codec.rotate">0</property>
  <property name="meta.media.0.codec.pix_fmt">yuv420p</property>
  <property name="meta.media.0.codec.sample_aspect_ratio">0</property>
  <property name="meta.media.0.codec.colorspace">601</property>
  <property name="meta.media.0.codec.name">webp</property>
  <property name="meta.media.0.codec.long_name">WebP image</property>
  <property name="meta.media.0.codec.bit_rate">0</property>
  <property name="meta.media.sample_aspect_num">1</property>
  <property name="meta.media.sample_aspect_den">1</property>
  <property name="meta.media.frame_rate_num">25</property>
  <property name="meta.media.frame_rate_den">1</property>
  <property name="meta.media.colorspace">601</property>
  <property name="meta.media.color_trc">2</property>
  <property name="meta.media.has_b_frames">0</property>
  <property name="meta.media.width">1024</property>
  <property name="meta.media.height">1024</property>
  <property name="meta.media.color_range">mpeg</property>
  <property name="xml">was here</property>
  <property name="meta.media.top_field_first">0</property>
  <property name="meta.media.progressive">1</property>
  <property name="set.test_audio">1</property>
  <property name="set.test_image">0</property>
 </chain>
 <chain id="chain25" out="00:00:59.960">
  <property name="length">1500</property>
  <property name="eof">pause</property>
  <property name="resource">qimage:/home/furmountain/repos/battle-of-alturia/m1/scene4.webp</property>
  <property name="mlt_service">avformat-novalidate</property>
  <property name="seekable">1</property>
  <property name="format">3</property>
  <property name="audio_index">-1</property>
  <property name="video_index">0</property>
  <property name="vstream">0</property>
  <property name="kdenlive:folderid">-1</property>
  <property name="kdenlive:id">35</property>
  <property name="mute_on_pause">0</property>
  <property name="kdenlive:clip_type">2</property>
  <property name="kdenlive:file_size">0</property>
  <property name="meta.media.nb_streams">1</property>
  <property name="meta.media.0.stream.type">video</property>
  <property name="meta.media.0.stream.frame_rate">25</property>
  <property name="meta.media.0.stream.sample_aspect_ratio">0</property>
  <property name="meta.media.0.codec.width">1024</property>
  <property name="meta.media.0.codec.height">1024</property>
  <property name="meta.media.0.codec.rotate">0</property>
  <property name="meta.media.0.codec.pix_fmt">yuv420p</property>
  <property name="meta.media.0.codec.sample_aspect_ratio">0</property>
  <property name="meta.media.0.codec.colorspace">601</property>
  <property name="meta.media.0.codec.name">webp</property>
  <property name="meta.media.0.codec.long_name">WebP image</property>
  <property name="meta.media.0.codec.bit_rate">0</property>
  <property name="meta.media.sample_aspect_num">1</property>
  <property name="meta.media.sample_aspect_den">1</property>
  <property name="meta.media.frame_rate_num">25</property>
  <property name="meta.media.frame_rate_den">1</property>
  <property name="meta.media.colorspace">601</property>
  <property name="meta.media.color_trc">2</property>
  <property name="meta.media.has_b_frames">0</property>
  <property name="meta.media.width">1024</property>
  <property name="meta.media.height">1024</property>
  <property name="meta.media.color_range">mpeg</property>
  <property name="xml">was here</property>
  <property name="meta.media.top_field_first">0</property>
  <property name="meta.media.progressive">1</property>
  <property name="set.test_audio">1</property>
  <property name="set.test_image">0</property>
 </chain>
 <chain id="chain26" out="00:00:59.960">
  <property name="length">1500</property>
  <property name="eof">pause</property>
  <property name="resource">ghost-hawk-dialog.webp</property>
  <property name="mlt_service">avformat-novalidate</property>
  <property name="seekable">1</property>
  <property name="format">3</property>
  <property name="audio_index">-1</property>
  <property name="video_index">0</property>
  <property name="vstream">0</property>
  <property name="kdenlive:folderid">-1</property>
  <property name="kdenlive:id">13</property>
  <property name="mute_on_pause">0</property>
  <property name="kdenlive:clip_type">2</property>
  <property name="kdenlive:file_size">0</property>
  <property name="meta.media.nb_streams">1</property>
  <property name="meta.media.0.stream.type">video</property>
  <property name="meta.media.0.stream.frame_rate">25</property>
  <property name="meta.media.0.stream.sample_aspect_ratio">0</property>
  <property name="meta.media.0.codec.width">1024</property>
  <property name="meta.media.0.codec.height">1024</property>
  <property name="meta.media.0.codec.rotate">0</property>
  <property name="meta.media.0.codec.pix_fmt">yuv420p</property>
  <property name="meta.media.0.codec.sample_aspect_ratio">0</property>
  <property name="meta.media.0.codec.colorspace">601</property>
  <property name="meta.media.0.codec.name">webp</property>
  <property name="meta.media.0.codec.long_name">WebP image</property>
  <property name="meta.media.0.codec.bit_rate">0</property>
  <property name="meta.media.sample_aspect_num">1</property>
  <property name="meta.media.sample_aspect_den">1</property>
  <property name="meta.media.frame_rate_num">25</property>
  <property name="meta.media.frame_rate_den">1</property>
  <property name="meta.media.colorspace">601</property>
  <property name="meta.media.color_trc">2</property>
  <property name="meta.media.has_b_frames">0</property>
  <property name="meta.media.width">1024</property>
  <property name="meta.media.height">1024</property>
  <property name="meta.media.color_range">mpeg</property>
  <property name="xml">was here</property>
  <property name="meta.media.top_field_first">0</property>
  <property name="meta.media.progressive">1</property>
  <property name="set.test_audio">1</property>
  <property name="set.test_image">0</property>
  <property name="kdenlive:control_uuid">{ba2909c0-3524-4d33-8d37-593e7523aab2}</property>
  <property name="meta.media.aspect_ratio">1</property>
 </chain>
 <chain id="chain27" out="00:00:59.960">
  <property name="length">1500</property>
  <property name="eof">pause</property>
  <property name="resource">scene7.webp</property>
  <property name="mlt_service">avformat-novalidate</property>
  <property name="seekable">1</property>
  <property name="format">3</property>
  <property name="audio_index">-1</property>
  <property name="video_index">0</property>
  <property name="vstream">0</property>
  <property name="kdenlive:folderid">-1</property>
  <property name="kdenlive:id">16</property>
  <property name="mute_on_pause">0</property>
  <property name="kdenlive:clip_type">2</property>
  <property name="kdenlive:file_size">0</property>
  <property name="meta.media.nb_streams">1</property>
  <property name="meta.media.0.stream.type">video</property>
  <property name="meta.media.0.stream.frame_rate">25</property>
  <property name="meta.media.0.stream.sample_aspect_ratio">0</property>
  <property name="meta.media.0.codec.width">1024</property>
  <property name="meta.media.0.codec.height">1024</property>
  <property name="meta.media.0.codec.rotate">0</property>
  <property name="meta.media.0.codec.pix_fmt">yuv420p</property>
  <property name="meta.media.0.codec.sample_aspect_ratio">0</property>
  <property name="meta.media.0.codec.colorspace">601</property>
  <property name="meta.media.0.codec.name">webp</property>
  <property name="meta.media.0.codec.long_name">WebP image</property>
  <property name="meta.media.0.codec.bit_rate">0</property>
  <property name="meta.media.sample_aspect_num">1</property>
  <property name="meta.media.sample_aspect_den">1</property>
  <property name="meta.media.frame_rate_num">25</property>
  <property name="meta.media.frame_rate_den">1</property>
  <property name="meta.media.colorspace">601</property>
  <property name="meta.media.color_trc">2</property>
  <property name="meta.media.has_b_frames">0</property>
  <property name="meta.media.width">1024</property>
  <property name="meta.media.height">1024</property>
  <property name="meta.media.color_range">mpeg</property>
  <property name="xml">was here</property>
  <property name="meta.media.top_field_first">0</property>
  <property name="meta.media.progressive">0</property>
  <property name="set.test_audio">1</property>
  <property name="set.test_image">0</property>
  <property name="kdenlive:control_uuid">{cacefc22-d203-42a8-a7af-2f156f634340}</property>
  <property name="meta.media.aspect_ratio">1</property>
 </chain>
 <chain id="chain28" out="00:00:59.960">
  <property name="length">1500</property>
  <property name="eof">pause</property>
  <property name="resource">scene8.webp</property>
  <property name="mlt_service">avformat-novalidate</property>
  <property name="seekable">1</property>
  <property name="format">3</property>
  <property name="audio_index">-1</property>
  <property name="video_index">0</property>
  <property name="vstream">0</property>
  <property name="kdenlive:folderid">-1</property>
  <property name="kdenlive:id">17</property>
  <property name="mute_on_pause">0</property>
  <property name="kdenlive:clip_type">2</property>
  <property name="kdenlive:file_size">0</property>
  <property name="meta.media.nb_streams">1</property>
  <property name="meta.media.0.stream.type">video</property>
  <property name="meta.media.0.stream.frame_rate">25</property>
  <property name="meta.media.0.stream.sample_aspect_ratio">0</property>
  <property name="meta.media.0.codec.width">1024</property>
  <property name="meta.media.0.codec.height">1024</property>
  <property name="meta.media.0.codec.rotate">0</property>
  <property name="meta.media.0.codec.pix_fmt">yuv420p</property>
  <property name="meta.media.0.codec.sample_aspect_ratio">0</property>
  <property name="meta.media.0.codec.colorspace">601</property>
  <property name="meta.media.0.codec.name">webp</property>
  <property name="meta.media.0.codec.long_name">WebP image</property>
  <property name="meta.media.0.codec.bit_rate">0</property>
  <property name="meta.media.sample_aspect_num">1</property>
  <property name="meta.media.sample_aspect_den">1</property>
  <property name="meta.media.frame_rate_num">25</property>
  <property name="meta.media.frame_rate_den">1</property>
  <property name="meta.media.colorspace">601</property>
  <property name="meta.media.color_trc">2</property>
  <property name="meta.media.has_b_frames">0</property>
  <property name="meta.media.width">1024</property>
  <property name="meta.media.height">1024</property>
  <property name="meta.media.color_range">mpeg</property>
  <property name="xml">was here</property>
  <property name="meta.media.top_field_first">0</property>
  <property name="meta.media.progressive">1</property>
  <property name="set.test_audio">1</property>
  <property name="set.test_image">0</property>
  <property name="kdenlive:control_uuid">{9d01c918-545d-4e3a-a592-bf20b4d07a50}</property>
  <property name="meta.media.aspect_ratio">1</property>
 </chain>
 <playlist id="playlist8">
  <entry producer="producer1" in="00:00:00.000" out="00:00:24.280">
   <property name="kdenlive:id">3</property>
   <filter id="filter37">
    <property name="background">colour:0</property>
    <property name="mlt_service">affine</property>
    <property name="kdenlive_id">pan_zoom</property>
    <property name="transition.rect">00:00:00.000=0 0 2880 2880;00:00:24.280=-960 0 2880 2880</property>
    <property name="transition.distort">0</property>
    <property name="use_normalised">0</property>
    <property name="producer.resource">0x00000000</property>
    <property name="transition.repeat_off">1</property>
    <property name="transition.mirror_off">1</property>
    <property name="kdenlive:collapsed">0</property>
   </filter>
   <filter id="filter36" out="00:00:03.000">
    <property name="start">1</property>
    <property name="level">1</property>
    <property name="mlt_service">brightness</property>
    <property name="kdenlive_id">fade_from_black</property>
    <property name="alpha">00:00:00.000=0;00:00:03.000=1</property>
    <property name="kdenlive:collapsed">0</property>
   </filter>
   <filter id="filter38" in="00:00:21.320" out="00:00:24.320">
    <property name="start">1</property>
    <property name="level">1</property>
    <property name="mlt_service">brightness</property>
    <property name="kdenlive_id">fade_to_black</property>
    <property name="alpha">00:00:00.000=1;00:00:03.000=0</property>
    <property name="kdenlive:collapsed">0</property>
   </filter>
  </entry>
  <entry producer="chain24" in="00:00:00.000" out="00:00:21.720">
   <property name="kdenlive:id">34</property>
   <property name="kdenlive:activeeffect">1</property>
   <filter id="filter39" out="00:00:03.000">
    <property name="start">1</property>
    <property name="level">1</property>
    <property name="mlt_service">brightness</property>
    <property name="kdenlive_id">fade_from_black</property>
    <property name="alpha">00:00:00.000=0;00:00:03.000=1</property>
    <property name="kdenlive:collapsed">0</property>
    <property name="disable">0</property>
   </filter>
   <filter id="filter40" in="00:00:18.760" out="00:00:21.760">
    <property name="start">1</property>
    <property name="level">1</property>
    <property name="mlt_service">brightness</property>
    <property name="kdenlive_id">fade_to_black</property>
    <property name="alpha">00:00:00.000=1;00:00:03.000=0</property>
    <property name="kdenlive:collapsed">0</property>
    <property name="disable">0</property>
   </filter>
   <filter id="filter41">
    <property name="background">colour:0</property>
    <property name="mlt_service">affine</property>
    <property name="kdenlive_id">pan_zoom</property>
    <property name="transition.rect">00:00:00.000=-3164 -1710 8640 4860;00:00:21.720=-718 -403 3360 1890</property>
    <property name="transition.distort">0</property>
    <property name="use_normalised">0</property>
    <property name="producer.resource">0x00000000</property>
    <property name="transition.repeat_off">1</property>
    <property name="transition.mirror_off">1</property>
    <property name="kdenlive:collapsed">0</property>
   </filter>
  </entry>
  <entry producer="producer5" in="00:00:00.000" out="00:00:33.360">
   <property name="kdenlive:id">7</property>
   <filter id="filter43">
    <property name="background">colour:0</property>
    <property name="mlt_service">affine</property>
    <property name="kdenlive_id">pan_zoom</property>
    <property name="transition.rect">00:00:00.000=0 0 960 540</property>
    <property name="transition.distort">0</property>
    <property name="use_normalised">0</property>
    <property name="producer.resource">0x00000000</property>
    <property name="transition.repeat_off">1</property>
    <property name="transition.mirror_off">1</property>
    <property name="kdenlive:collapsed">0</property>
   </filter>
   <filter id="filter42" out="00:00:03.000">
    <property name="start">1</property>
    <property name="level">1</property>
    <property name="mlt_service">brightness</property>
    <property name="kdenlive_id">fade_from_black</property>
    <property name="alpha">00:00:00.000=0;00:00:03.000=1</property>
    <property name="kdenlive:collapsed">0</property>
   </filter>
   <filter id="filter44" in="00:00:30.400" out="00:00:33.400">
    <property name="start">1</property>
    <property name="level">1</property>
    <property name="mlt_service">brightness</property>
    <property name="kdenlive_id">fade_to_black</property>
    <property name="alpha">00:00:00.000=1;00:00:03.000=0</property>
    <property name="kdenlive:collapsed">0</property>
   </filter>
  </entry>
  <entry producer="chain25" in="00:00:00.000" out="00:00:21.520">
   <property name="kdenlive:id">35</property>
   <property name="kdenlive:activeeffect">0</property>
   <filter id="filter45" out="00:00:03.000">
    <property name="start">1</property>
    <property name="level">1</property>
    <property name="mlt_service">brightness</property>
    <property name="kdenlive_id">fade_from_black</property>
    <property name="alpha">00:00:00.000=0;00:00:03.000=1</property>
    <property name="kdenlive:collapsed">0</property>
    <property name="disable">0</property>
   </filter>
   <filter id="filter46" in="00:00:18.560" out="00:00:21.560">
    <property name="start">1</property>
    <property name="level">1</property>
    <property name="mlt_service">brightness</property>
    <property name="kdenlive_id">fade_to_black</property>
    <property name="alpha">00:00:00.000=1;00:00:03.000=0</property>
    <property name="kdenlive:collapsed">0</property>
    <property name="disable">0</property>
   </filter>
   <filter id="filter47">
    <property name="background">colour:0</property>
    <property name="mlt_service">affine</property>
    <property name="kdenlive_id">pan_zoom</property>
    <property name="transition.rect">00:00:00.000=-720 -717 3360 1890;00:00:21.520=-720 -296 3360 1890</property>
    <property name="transition.distort">0</property>
    <property name="use_normalised">0</property>
    <property name="producer.resource">0x00000000</property>
    <property name="transition.repeat_off">1</property>
    <property name="transition.mirror_off">1</property>
    <property name="kdenlive:collapsed">0</property>
   </filter>
  </entry>
  <entry producer="producer7" in="00:00:00.000" out="00:00:19.520">
   <property name="kdenlive:id">12</property>
   <filter id="filter48">
    <property name="background">colour:0</property>
    <property name="mlt_service">affine</property>
    <property name="kdenlive_id">pan_zoom</property>
    <property name="transition.rect">00:00:00.000=0 0 1920 1080;00:00:19.520=-975 -798 3840 2160</property>
    <property name="transition.distort">0</property>
    <property name="use_normalised">0</property>
    <property name="producer.resource">0x00000000</property>
    <property name="transition.repeat_off">1</property>
    <property name="transition.mirror_off">1</property>
    <property name="kdenlive:collapsed">0</property>
   </filter>
   <filter id="filter49" out="00:00:03.000">
    <property name="start">1</property>
    <property name="level">1</property>
    <property name="mlt_service">brightness</property>
    <property name="kdenlive_id">fade_from_black</property>
    <property name="alpha">00:00:00.000=0;00:00:03.000=1</property>
    <property name="kdenlive:collapsed">0</property>
   </filter>
   <filter id="filter50" in="00:00:16.560" out="00:00:19.560">
    <property name="start">1</property>
    <property name="level">1</property>
    <property name="mlt_service">brightness</property>
    <property name="kdenlive_id">fade_to_black</property>
    <property name="alpha">00:00:00.000=1;00:00:03.000=0</property>
    <property name="kdenlive:collapsed">0</property>
   </filter>
  </entry>
  <entry producer="chain26" in="00:00:00.000" out="00:00:31.560">
   <property name="kdenlive:id">13</property>
   <filter id="filter51">
    <property name="background">colour:0</property>
    <property name="mlt_service">affine</property>
    <property name="kdenlive_id">pan_zoom</property>
    <property name="transition.rect">00:00:00.000=-1500 0 1920 1080;00:00:10.040=-405 0 1920 1080</property>
    <property name="transition.distort">0</property>
    <property name="use_normalised">0</property>
    <property name="producer.resource">0x00000000</property>
    <property name="transition.repeat_off">1</property>
    <property name="transition.mirror_off">1</property>
    <property name="kdenlive:collapsed">0</property>
   </filter>
   <filter id="filter52" in="00:00:28.600" out="00:00:31.600">
    <property name="start">1</property>
    <property name="level">1</property>
    <property name="mlt_service">brightness</property>
    <property name="kdenlive_id">fade_to_black</property>
    <property name="alpha">00:00:00.000=1;00:00:03.000=0</property>
    <property name="kdenlive:collapsed">0</property>
   </filter>
  </entry>
  <blank length="00:01:08.160"/>
  <entry producer="chain27" in="00:00:00.000" out="00:00:39.760">
   <property name="kdenlive:id">16</property>
   <filter id="filter53">
    <property name="background">colour:0</property>
    <property name="mlt_service">affine</property>
    <property name="kdenlive_id">pan_zoom</property>
    <property name="transition.rect">00:00:00.000=0 0 1920 1080;00:00:39.760=-1759 -1245 5760 3240</property>
    <property name="transition.distort">0</property>
    <property name="use_normalised">0</property>
    <property name="producer.resource">0x00000000</property>
    <property name="transition.repeat_off">1</property>
    <property name="transition.mirror_off">1</property>
    <property name="kdenlive:collapsed">0</property>
   </filter>
   <filter id="filter54" out="00:00:03.000">
    <property name="start">1</property>
    <property name="level">1</property>
    <property name="mlt_service">brightness</property>
    <property name="kdenlive_id">fade_from_black</property>
    <property name="alpha">00:00:00.000=0;00:00:03.000=1</property>
    <property name="kdenlive:collapsed">0</property>
   </filter>
   <filter id="filter55" in="00:00:36.760" out="00:00:39.760">
    <property name="start">1</property>
    <property name="level">1</property>
    <property name="mlt_service">brightness</property>
    <property name="kdenlive_id">fade_to_black</property>
    <property name="alpha">00:00:00.000=1;00:00:03.000=0</property>
    <property name="kdenlive:collapsed">0</property>
   </filter>
  </entry>
  <entry producer="chain28" in="00:00:00.000" out="00:00:40.600">
   <property name="kdenlive:id">17</property>
   <property name="kdenlive:activeeffect">1</property>
   <filter id="filter57">
    <property name="version">0.1</property>
    <property name="mlt_service">frei0r.scale0tilt</property>
    <property name="kdenlive_id">frei0r.scale0tilt</property>
    <property name="Clip left">00:00:00.000=0</property>
    <property name="Clip right">00:00:00.000=0.4875</property>
    <property name="Clip top">00:00:00.000=0</property>
    <property name="Clip bottom">00:00:00.000=0.675</property>
    <property name="Scale X">00:00:00.000=0.5</property>
    <property name="Scale Y">00:00:00.000=0.5</property>
    <property name="Tilt X">00:00:00.000=0.5</property>
    <property name="Tilt Y">00:00:00.000=0.5</property>
    <property name="kdenlive:collapsed">0</property>
   </filter>
   <filter id="filter56" out="00:00:03.000">
    <property name="start">1</property>
    <property name="level">1</property>
    <property name="mlt_service">brightness</property>
    <property name="kdenlive_id">fade_from_black</property>
    <property name="alpha">00:00:00.000=0;00:00:03.000=1</property>
    <property name="kdenlive:collapsed">0</property>
   </filter>
   <filter id="filter58" in="00:00:37.600" out="00:00:40.600">
    <property name="start">1</property>
    <property name="level">1</property>
    <property name="mlt_service">brightness</property>
    <property name="kdenlive_id">fade_to_black</property>
    <property name="alpha">00:00:00.000=1;00:00:03.000=0</property>
    <property name="kdenlive:collapsed">0</property>
   </filter>
  </entry>
 </playlist>
 <playlist id="playlist9"/>
 <tractor id="tractor4" in="00:00:00.000" out="00:05:00.760">
  <property name="kdenlive:trackheight">110</property>
  <property name="kdenlive:timeline_active">1</property>
  <property name="kdenlive:collapsed">0</property>
  <property name="kdenlive:thumbs_format"/>
  <property name="kdenlive:audio_rec"/>
  <track hide="audio" producer="playlist8"/>
  <track hide="audio" producer="playlist9"/>
 </tractor>
 <chain id="chain29" out="00:00:59.960">
  <property name="length">1500</property>
  <property name="eof">pause</property>
  <property name="resource">scene8.webp</property>
  <property name="mlt_service">avformat-novalidate</property>
  <property name="seekable">1</property>
  <property name="format">3</property>
  <property name="audio_index">-1</property>
  <property name="video_index">0</property>
  <property name="vstream">0</property>
  <property name="kdenlive:folderid">-1</property>
  <property name="kdenlive:id">17</property>
  <property name="mute_on_pause">0</property>
  <property name="kdenlive:clip_type">2</property>
  <property name="kdenlive:file_size">0</property>
  <property name="meta.media.nb_streams">1</property>
  <property name="meta.media.0.stream.type">video</property>
  <property name="meta.media.0.stream.frame_rate">25</property>
  <property name="meta.media.0.stream.sample_aspect_ratio">0</property>
  <property name="meta.media.0.codec.width">1024</property>
  <property name="meta.media.0.codec.height">1024</property>
  <property name="meta.media.0.codec.rotate">0</property>
  <property name="meta.media.0.codec.pix_fmt">yuv420p</property>
  <property name="meta.media.0.codec.sample_aspect_ratio">0</property>
  <property name="meta.media.0.codec.colorspace">601</property>
  <property name="meta.media.0.codec.name">webp</property>
  <property name="meta.media.0.codec.long_name">WebP image</property>
  <property name="meta.media.0.codec.bit_rate">0</property>
  <property name="meta.media.sample_aspect_num">1</property>
  <property name="meta.media.sample_aspect_den">1</property>
  <property name="meta.media.frame_rate_num">25</property>
  <property name="meta.media.frame_rate_den">1</property>
  <property name="meta.media.colorspace">601</property>
  <property name="meta.media.color_trc">2</property>
  <property name="meta.media.has_b_frames">0</property>
  <property name="meta.media.width">1024</property>
  <property name="meta.media.height">1024</property>
  <property name="meta.media.color_range">mpeg</property>
  <property name="xml">was here</property>
  <property name="meta.media.top_field_first">0</property>
  <property name="meta.media.progressive">1</property>
  <property name="set.test_audio">1</property>
  <property name="set.test_image">0</property>
  <property name="kdenlive:control_uuid">{9d01c918-545d-4e3a-a592-bf20b4d07a50}</property>
  <property name="meta.media.aspect_ratio">1</property>
 </chain>
 <playlist id="playlist10">
  <blank length="00:04:25.280"/>
  <entry producer="chain29" in="00:00:00.000" out="00:00:35.480">
   <property name="kdenlive:id">17</property>
   <filter id="filter59">
    <property name="version">0.1</property>
    <property name="mlt_service">frei0r.scale0tilt</property>
    <property name="kdenlive_id">frei0r.scale0tilt</property>
    <property name="Clip left">00:00:00.000=0.408333</property>
    <property name="Clip right">00:00:00.000=0.367708</property>
    <property name="Clip top">00:00:00.000=0.325</property>
    <property name="Clip bottom">00:00:00.000=0.359259</property>
    <property name="Scale X">00:00:00.000=0.5</property>
    <property name="Scale Y">00:00:00.000=0.5</property>
    <property name="Tilt X">00:00:00.000=0.5</property>
    <property name="Tilt Y">00:00:00.000=0.5</property>
    <property name="kdenlive:collapsed">0</property>
   </filter>
   <filter id="filter60" out="00:00:03.000">
    <property name="start">1</property>
    <property name="level">1</property>
    <property name="mlt_service">brightness</property>
    <property name="kdenlive_id">fade_from_black</property>
    <property name="alpha">00:00:00.000=0;00:00:03.000=1</property>
    <property name="kdenlive:collapsed">0</property>
   </filter>
   <filter id="filter61" in="00:00:32.480" out="00:00:35.480">
    <property name="start">1</property>
    <property name="level">1</property>
    <property name="mlt_service">brightness</property>
    <property name="kdenlive_id">fade_to_black</property>
    <property name="alpha">00:00:00.000=1;00:00:03.000=0</property>
    <property name="kdenlive:collapsed">0</property>
   </filter>
  </entry>
 </playlist>
 <playlist id="playlist11"/>
 <tractor id="tractor5" in="00:00:00.000" out="00:05:00.760">
  <property name="kdenlive:trackheight">69</property>
  <property name="kdenlive:timeline_active">1</property>
  <property name="kdenlive:collapsed">0</property>
  <property name="kdenlive:track_name">V7</property>
  <property name="kdenlive:thumbs_format"/>
  <property name="kdenlive:audio_rec"/>
  <track hide="audio" producer="playlist10"/>
  <track hide="audio" producer="playlist11"/>
 </tractor>
 <chain id="chain30" out="00:00:59.960">
  <property name="length">1500</property>
  <property name="eof">pause</property>
  <property name="resource">scene8.webp</property>
  <property name="mlt_service">avformat-novalidate</property>
  <property name="seekable">1</property>
  <property name="format">3</property>
  <property name="audio_index">-1</property>
  <property name="video_index">0</property>
  <property name="vstream">0</property>
  <property name="kdenlive:folderid">-1</property>
  <property name="kdenlive:id">17</property>
  <property name="mute_on_pause">0</property>
  <property name="kdenlive:clip_type">2</property>
  <property name="kdenlive:file_size">0</property>
  <property name="meta.media.nb_streams">1</property>
  <property name="meta.media.0.stream.type">video</property>
  <property name="meta.media.0.stream.frame_rate">25</property>
  <property name="meta.media.0.stream.sample_aspect_ratio">0</property>
  <property name="meta.media.0.codec.width">1024</property>
  <property name="meta.media.0.codec.height">1024</property>
  <property name="meta.media.0.codec.rotate">0</property>
  <property name="meta.media.0.codec.pix_fmt">yuv420p</property>
  <property name="meta.media.0.codec.sample_aspect_ratio">0</property>
  <property name="meta.media.0.codec.colorspace">601</property>
  <property name="meta.media.0.codec.name">webp</property>
  <property name="meta.media.0.codec.long_name">WebP image</property>
  <property name="meta.media.0.codec.bit_rate">0</property>
  <property name="meta.media.sample_aspect_num">1</property>
  <property name="meta.media.sample_aspect_den">1</property>
  <property name="meta.media.frame_rate_num">25</property>
  <property name="meta.media.frame_rate_den">1</property>
  <property name="meta.media.colorspace">601</property>
  <property name="meta.media.color_trc">2</property>
  <property name="meta.media.has_b_frames">0</property>
  <property name="meta.media.width">1024</property>
  <property name="meta.media.height">1024</property>
  <property name="meta.media.color_range">mpeg</property>
  <property name="xml">was here</property>
  <property name="meta.media.top_field_first">0</property>
  <property name="meta.media.progressive">1</property>
  <property name="set.test_audio">1</property>
  <property name="set.test_image">0</property>
  <property name="kdenlive:control_uuid">{9d01c918-545d-4e3a-a592-bf20b4d07a50}</property>
  <property name="meta.media.aspect_ratio">1</property>
 </chain>
 <playlist id="playlist12">
  <blank length="00:04:30.200"/>
  <entry producer="chain30" in="00:00:00.000" out="00:00:30.560">
   <property name="kdenlive:id">17</property>
   <filter id="filter62">
    <property name="version">0.1</property>
    <property name="mlt_service">frei0r.scale0tilt</property>
    <property name="kdenlive_id">frei0r.scale0tilt</property>
    <property name="Clip left">00:00:00.000=0</property>
    <property name="Clip right">00:00:00.000=0.580208</property>
    <property name="Clip top">00:00:00.000=0.67037</property>
    <property name="Clip bottom">00:00:00.000=0</property>
    <property name="Scale X">00:00:00.000=0.5</property>
    <property name="Scale Y">00:00:00.000=0.5</property>
    <property name="Tilt X">00:00:00.000=0.5</property>
    <property name="Tilt Y">00:00:00.000=0.5</property>
    <property name="kdenlive:collapsed">0</property>
   </filter>
   <filter id="filter63" out="00:00:03.000">
    <property name="start">1</property>
    <property name="level">1</property>
    <property name="mlt_service">brightness</property>
    <property name="kdenlive_id">fade_from_black</property>
    <property name="alpha">00:00:00.000=0;00:00:03.000=1</property>
    <property name="kdenlive:collapsed">0</property>
   </filter>
   <filter id="filter64" in="00:00:27.560" out="00:00:30.560">
    <property name="start">1</property>
    <property name="level">1</property>
    <property name="mlt_service">brightness</property>
    <property name="kdenlive_id">fade_to_black</property>
    <property name="alpha">00:00:00.000=1;00:00:03.000=0</property>
    <property name="kdenlive:collapsed">0</property>
   </filter>
  </entry>
 </playlist>
 <playlist id="playlist13"/>
 <tractor id="tractor6" in="00:00:00.000" out="00:05:00.760">
  <property name="kdenlive:trackheight">69</property>
  <property name="kdenlive:timeline_active">1</property>
  <property name="kdenlive:collapsed">0</property>
  <property name="kdenlive:track_name">V6</property>
  <property name="kdenlive:thumbs_format"/>
  <property name="kdenlive:audio_rec"/>
  <track hide="audio" producer="playlist12"/>
  <track hide="audio" producer="playlist13"/>
 </tractor>
 <chain id="chain31" out="00:00:59.960">
  <property name="length">1500</property>
  <property name="eof">pause</property>
  <property name="resource">scene8.webp</property>
  <property name="mlt_service">avformat-novalidate</property>
  <property name="seekable">1</property>
  <property name="format">3</property>
  <property name="audio_index">-1</property>
  <property name="video_index">0</property>
  <property name="vstream">0</property>
  <property name="kdenlive:folderid">-1</property>
  <property name="kdenlive:id">17</property>
  <property name="mute_on_pause">0</property>
  <property name="kdenlive:clip_type">2</property>
  <property name="kdenlive:file_size">0</property>
  <property name="meta.media.nb_streams">1</property>
  <property name="meta.media.0.stream.type">video</property>
  <property name="meta.media.0.stream.frame_rate">25</property>
  <property name="meta.media.0.stream.sample_aspect_ratio">0</property>
  <property name="meta.media.0.codec.width">1024</property>
  <property name="meta.media.0.codec.height">1024</property>
  <property name="meta.media.0.codec.rotate">0</property>
  <property name="meta.media.0.codec.pix_fmt">yuv420p</property>
  <property name="meta.media.0.codec.sample_aspect_ratio">0</property>
  <property name="meta.media.0.codec.colorspace">601</property>
  <property name="meta.media.0.codec.name">webp</property>
  <property name="meta.media.0.codec.long_name">WebP image</property>
  <property name="meta.media.0.codec.bit_rate">0</property>
  <property name="meta.media.sample_aspect_num">1</property>
  <property name="meta.media.sample_aspect_den">1</property>
  <property name="meta.media.frame_rate_num">25</property>
  <property name="meta.media.frame_rate_den">1</property>
  <property name="meta.media.colorspace">601</property>
  <property name="meta.media.color_trc">2</property>
  <property name="meta.media.has_b_frames">0</property>
  <property name="meta.media.width">1024</property>
  <property name="meta.media.height">1024</property>
  <property name="meta.media.color_range">mpeg</property>
  <property name="xml">was here</property>
  <property name="meta.media.top_field_first">0</property>
  <property name="meta.media.progressive">1</property>
  <property name="set.test_audio">1</property>
  <property name="set.test_image">0</property>
  <property name="kdenlive:control_uuid">{9d01c918-545d-4e3a-a592-bf20b4d07a50}</property>
  <property name="meta.media.aspect_ratio">1</property>
 </chain>
 <playlist id="playlist14">
  <blank length="00:04:35.320"/>
  <entry producer="chain31" in="00:00:00.000" out="00:00:25.440">
   <property name="kdenlive:id">17</property>
   <filter id="filter65">
    <property name="version">0.1</property>
    <property name="mlt_service">frei0r.scale0tilt</property>
    <property name="kdenlive_id">frei0r.scale0tilt</property>
    <property name="Clip left">00:00:00.000=0</property>
    <property name="Clip right">00:00:00.000=0</property>
    <property name="Clip top">00:00:00.000=0</property>
    <property name="Clip bottom">00:00:00.000=0.669444</property>
    <property name="Scale X">00:00:00.000=0.5</property>
    <property name="Scale Y">00:00:00.000=0.5</property>
    <property name="Tilt X">00:00:00.000=0.5</property>
    <property name="Tilt Y">00:00:00.000=0.5</property>
    <property name="kdenlive:collapsed">0</property>
   </filter>
   <filter id="filter66" out="00:00:03.000">
    <property name="start">1</property>
    <property name="level">1</property>
    <property name="mlt_service">brightness</property>
    <property name="kdenlive_id">fade_from_black</property>
    <property name="alpha">00:00:00.000=0;00:00:03.000=1</property>
    <property name="kdenlive:collapsed">0</property>
   </filter>
   <filter id="filter67" in="00:00:22.440" out="00:00:25.440">
    <property name="start">1</property>
    <property name="level">1</property>
    <property name="mlt_service">brightness</property>
    <property name="kdenlive_id">fade_to_black</property>
    <property name="alpha">00:00:00.000=1;00:00:03.000=0</property>
    <property name="kdenlive:collapsed">0</property>
   </filter>
  </entry>
 </playlist>
 <playlist id="playlist15"/>
 <tractor id="tractor7" in="00:00:00.000" out="00:05:00.760">
  <property name="kdenlive:trackheight">69</property>
  <property name="kdenlive:timeline_active">1</property>
  <property name="kdenlive:collapsed">0</property>
  <property name="kdenlive:track_name">V5</property>
  <property name="kdenlive:thumbs_format"/>
  <property name="kdenlive:audio_rec"/>
  <track hide="audio" producer="playlist14"/>
  <track hide="audio" producer="playlist15"/>
 </tractor>
 <chain id="chain32" out="00:00:59.960">
  <property name="length">1500</property>
  <property name="eof">pause</property>
  <property name="resource">papa-bear-dialog.webp</property>
  <property name="mlt_service">avformat-novalidate</property>
  <property name="seekable">1</property>
  <property name="format">3</property>
  <property name="audio_index">-1</property>
  <property name="video_index">0</property>
  <property name="vstream">0</property>
  <property name="kdenlive:folderid">-1</property>
  <property name="kdenlive:id">14</property>
  <property name="mute_on_pause">0</property>
  <property name="kdenlive:clip_type">2</property>
  <property name="kdenlive:file_size">0</property>
  <property name="meta.media.nb_streams">1</property>
  <property name="meta.media.0.stream.type">video</property>
  <property name="meta.media.0.stream.frame_rate">25</property>
  <property name="meta.media.0.stream.sample_aspect_ratio">0</property>
  <property name="meta.media.0.codec.width">1024</property>
  <property name="meta.media.0.codec.height">1024</property>
  <property name="meta.media.0.codec.rotate">0</property>
  <property name="meta.media.0.codec.pix_fmt">yuv420p</property>
  <property name="meta.media.0.codec.sample_aspect_ratio">0</property>
  <property name="meta.media.0.codec.colorspace">601</property>
  <property name="meta.media.0.codec.name">webp</property>
  <property name="meta.media.0.codec.long_name">WebP image</property>
  <property name="meta.media.0.codec.bit_rate">0</property>
  <property name="meta.media.sample_aspect_num">1</property>
  <property name="meta.media.sample_aspect_den">1</property>
  <property name="meta.media.frame_rate_num">25</property>
  <property name="meta.media.frame_rate_den">1</property>
  <property name="meta.media.colorspace">601</property>
  <property name="meta.media.color_trc">2</property>
  <property name="meta.media.has_b_frames">0</property>
  <property name="meta.media.width">1024</property>
  <property name="meta.media.height">1024</property>
  <property name="meta.media.color_range">mpeg</property>
  <property name="xml">was here</property>
  <property name="meta.media.top_field_first">0</property>
  <property name="meta.media.progressive">1</property>
  <property name="set.test_audio">1</property>
  <property name="set.test_image">0</property>
  <property name="kdenlive:control_uuid">{a3574d3b-164a-49cf-8ea5-f9061fecc5be}</property>
  <property name="meta.media.aspect_ratio">1</property>
 </chain>
 <chain id="chain33" out="00:00:59.960">
  <property name="length">1500</property>
  <property name="eof">pause</property>
  <property name="resource">scene8.webp</property>
  <property name="mlt_service">avformat-novalidate</property>
  <property name="seekable">1</property>
  <property name="format">3</property>
  <property name="audio_index">-1</property>
  <property name="video_index">0</property>
  <property name="vstream">0</property>
  <property name="kdenlive:folderid">-1</property>
  <property name="kdenlive:id">17</property>
  <property name="mute_on_pause">0</property>
  <property name="kdenlive:clip_type">2</property>
  <property name="kdenlive:file_size">0</property>
  <property name="meta.media.nb_streams">1</property>
  <property name="meta.media.0.stream.type">video</property>
  <property name="meta.media.0.stream.frame_rate">25</property>
  <property name="meta.media.0.stream.sample_aspect_ratio">0</property>
  <property name="meta.media.0.codec.width">1024</property>
  <property name="meta.media.0.codec.height">1024</property>
  <property name="meta.media.0.codec.rotate">0</property>
  <property name="meta.media.0.codec.pix_fmt">yuv420p</property>
  <property name="meta.media.0.codec.sample_aspect_ratio">0</property>
  <property name="meta.media.0.codec.colorspace">601</property>
  <property name="meta.media.0.codec.name">webp</property>
  <property name="meta.media.0.codec.long_name">WebP image</property>
  <property name="meta.media.0.codec.bit_rate">0</property>
  <property name="meta.media.sample_aspect_num">1</property>
  <property name="meta.media.sample_aspect_den">1</property>
  <property name="meta.media.frame_rate_num">25</property>
  <property name="meta.media.frame_rate_den">1</property>
  <property name="meta.media.colorspace">601</property>
  <property name="meta.media.color_trc">2</property>
  <property name="meta.media.has_b_frames">0</property>
  <property name="meta.media.width">1024</property>
  <property name="meta.media.height">1024</property>
  <property name="meta.media.color_range">mpeg</property>
  <property name="xml">was here</property>
  <property name="meta.media.top_field_first">0</property>
  <property name="meta.media.progressive">1</property>
  <property name="set.test_audio">1</property>
  <property name="set.test_image">0</property>
  <property name="kdenlive:control_uuid">{9d01c918-545d-4e3a-a592-bf20b4d07a50}</property>
  <property name="meta.media.aspect_ratio">1</property>
 </chain>
 <playlist id="playlist16">
  <blank length="00:01:01.080"/>
  <entry producer="producer8" in="00:00:00.000" out="00:00:18.360">
   <property name="kdenlive:id">9</property>
   <filter id="filter70">
    <property name="background">colour:0</property>
    <property name="mlt_service">affine</property>
    <property name="kdenlive_id">pan_zoom</property>
    <property name="transition.rect">00:00:00.000=961 537 960 540</property>
    <property name="transition.distort">0</property>
    <property name="use_normalised">0</property>
    <property name="producer.resource">0x00000000</property>
    <property name="transition.repeat_off">1</property>
    <property name="transition.mirror_off">1</property>
    <property name="kdenlive:collapsed">0</property>
   </filter>
   <filter id="filter68" out="00:00:03.000">
    <property name="start">1</property>
    <property name="level">1</property>
    <property name="mlt_service">brightness</property>
    <property name="kdenlive_id">fade_from_black</property>
    <property name="alpha">00:00:00.000=0;00:00:03.000=1</property>
    <property name="kdenlive:collapsed">0</property>
   </filter>
   <filter id="filter69" in="00:00:15.400" out="00:00:18.400">
    <property name="start">1</property>
    <property name="level">1</property>
    <property name="mlt_service">brightness</property>
    <property name="kdenlive_id">fade_to_black</property>
    <property name="alpha">00:00:00.000=1;00:00:03.000=0</property>
    <property name="kdenlive:collapsed">0</property>
   </filter>
  </entry>
  <blank length="00:00:52.520"/>
  <entry producer="chain32" in="00:00:00.000" out="00:00:20.160">
   <property name="kdenlive:id">14</property>
   <filter id="filter71">
    <property name="version">0.1</property>
    <property name="mlt_service">frei0r.scale0tilt</property>
    <property name="kdenlive_id">frei0r.scale0tilt</property>
    <property name="Clip left">00:00:00.000=0</property>
    <property name="Clip right">00:00:00.000=0</property>
    <property name="Clip top">00:00:00.000=0.185185</property>
    <property name="Clip bottom">00:00:00.000=0.185185</property>
    <property name="Scale X">00:00:00.000=0.375</property>
    <property name="Scale Y">00:00:00.000=0.375</property>
    <property name="Tilt X">00:00:00.000=0.5</property>
    <property name="Tilt Y">00:00:00.000=0.5</property>
    <property name="kdenlive:collapsed">1</property>
   </filter>
   <filter id="filter72">
    <property name="background">colour:0</property>
    <property name="mlt_service">affine</property>
    <property name="kdenlive_id">pan_zoom</property>
    <property name="transition.rect">00:00:00.000=1500 -127 1920 1080;00:00:05.080=698 -127 1920 1080</property>
    <property name="transition.distort">0</property>
    <property name="use_normalised">0</property>
    <property name="producer.resource">0x00000000</property>
    <property name="transition.repeat_off">1</property>
    <property name="transition.mirror_off">1</property>
    <property name="kdenlive:collapsed">0</property>
   </filter>
   <filter id="filter73" in="00:00:17.200" out="00:00:20.200">
    <property name="start">1</property>
    <property name="level">1</property>
    <property name="mlt_service">brightness</property>
    <property name="kdenlive_id">fade_to_black</property>
    <property name="alpha">00:00:00.000=1;00:00:03.000=0</property>
    <property name="kdenlive:collapsed">0</property>
   </filter>
  </entry>
  <blank length="00:02:07.800"/>
  <entry producer="chain33" in="00:00:00.000" out="00:00:20.760">
   <property name="kdenlive:id">17</property>
   <filter id="filter74">
    <property name="version">0.1</property>
    <property name="mlt_service">frei0r.scale0tilt</property>
    <property name="kdenlive_id">frei0r.scale0tilt</property>
    <property name="Clip left">00:00:00.000=0.629687</property>
    <property name="Clip right">00:00:00.000=0</property>
    <property name="Clip top">00:00:00.000=0</property>
    <property name="Clip bottom">00:00:00.000=0.325</property>
    <property name="Scale X">00:00:00.000=0.5</property>
    <property name="Scale Y">00:00:00.000=0.5</property>
    <property name="Tilt X">00:00:00.000=0.5</property>
    <property name="Tilt Y">00:00:00.000=0.5</property>
    <property name="kdenlive:collapsed">0</property>
   </filter>
   <filter id="filter75" out="00:00:03.000">
    <property name="start">1</property>
    <property name="level">1</property>
    <property name="mlt_service">brightness</property>
    <property name="kdenlive_id">fade_from_black</property>
    <property name="alpha">00:00:00.000=0;00:00:03.000=1</property>
    <property name="kdenlive:collapsed">0</property>
   </filter>
   <filter id="filter76" in="00:00:17.760" out="00:00:20.760">
    <property name="start">1</property>
    <property name="level">1</property>
    <property name="mlt_service">brightness</property>
    <property name="kdenlive_id">fade_to_black</property>
    <property name="alpha">00:00:00.000=1;00:00:03.000=0</property>
    <property name="kdenlive:collapsed">0</property>
   </filter>
  </entry>
 </playlist>
 <playlist id="playlist17"/>
 <tractor id="tractor8" in="00:00:00.000" out="00:05:00.760">
  <property name="kdenlive:trackheight">110</property>
  <property name="kdenlive:timeline_active">1</property>
  <property name="kdenlive:collapsed">0</property>
  <property name="kdenlive:track_name">V3</property>
  <property name="kdenlive:thumbs_format"/>
  <property name="kdenlive:audio_rec"/>
  <track hide="audio" producer="playlist16"/>
  <track hide="audio" producer="playlist17"/>
 </tractor>
 <chain id="chain46" out="00:00:59.960">
  <property name="length">1500</property>
  <property name="eof">pause</property>
  <property name="resource">colonel-dialog.webp</property>
  <property name="mlt_service">avformat-novalidate</property>
  <property name="seekable">1</property>
  <property name="format">3</property>
  <property name="audio_index">-1</property>
  <property name="video_index">0</property>
  <property name="vstream">0</property>
  <property name="kdenlive:folderid">-1</property>
  <property name="kdenlive:id">15</property>
  <property name="mute_on_pause">0</property>
  <property name="kdenlive:clip_type">2</property>
  <property name="kdenlive:file_size">0</property>
  <property name="meta.media.nb_streams">1</property>
  <property name="meta.media.0.stream.type">video</property>
  <property name="meta.media.0.stream.frame_rate">25</property>
  <property name="meta.media.0.stream.sample_aspect_ratio">0</property>
  <property name="meta.media.0.codec.width">1024</property>
  <property name="meta.media.0.codec.height">1024</property>
  <property name="meta.media.0.codec.rotate">0</property>
  <property name="meta.media.0.codec.pix_fmt">yuv420p</property>
  <property name="meta.media.0.codec.sample_aspect_ratio">0</property>
  <property name="meta.media.0.codec.colorspace">601</property>
  <property name="meta.media.0.codec.name">webp</property>
  <property name="meta.media.0.codec.long_name">WebP image</property>
  <property name="meta.media.0.codec.bit_rate">0</property>
  <property name="meta.media.sample_aspect_num">1</property>
  <property name="meta.media.sample_aspect_den">1</property>
  <property name="meta.media.frame_rate_num">25</property>
  <property name="meta.media.frame_rate_den">1</property>
  <property name="meta.media.colorspace">601</property>
  <property name="meta.media.color_trc">2</property>
  <property name="meta.media.has_b_frames">0</property>
  <property name="meta.media.width">1024</property>
  <property name="meta.media.height">1024</property>
  <property name="meta.media.color_range">mpeg</property>
  <property name="xml">was here</property>
  <property name="meta.media.top_field_first">0</property>
  <property name="meta.media.progressive">1</property>
  <property name="set.test_audio">1</property>
  <property name="set.test_image">0</property>
  <property name="kdenlive:control_uuid">{ec71b50d-558f-4d78-921e-c25e82ad96d6}</property>
  <property name="meta.media.aspect_ratio">1</property>
 </chain>
 <chain id="chain47" out="00:00:59.960">
  <property name="length">1500</property>
  <property name="eof">pause</property>
  <property name="resource">scene8.webp</property>
  <property name="mlt_service">avformat-novalidate</property>
  <property name="seekable">1</property>
  <property name="format">3</property>
  <property name="audio_index">-1</property>
  <property name="video_index">0</property>
  <property name="vstream">0</property>
  <property name="kdenlive:folderid">-1</property>
  <property name="kdenlive:id">17</property>
  <property name="mute_on_pause">0</property>
  <property name="kdenlive:clip_type">2</property>
  <property name="kdenlive:file_size">0</property>
  <property name="meta.media.nb_streams">1</property>
  <property name="meta.media.0.stream.type">video</property>
  <property name="meta.media.0.stream.frame_rate">25</property>
  <property name="meta.media.0.stream.sample_aspect_ratio">0</property>
  <property name="meta.media.0.codec.width">1024</property>
  <property name="meta.media.0.codec.height">1024</property>
  <property name="meta.media.0.codec.rotate">0</property>
  <property name="meta.media.0.codec.pix_fmt">yuv420p</property>
  <property name="meta.media.0.codec.sample_aspect_ratio">0</property>
  <property name="meta.media.0.codec.colorspace">601</property>
  <property name="meta.media.0.codec.name">webp</property>
  <property name="meta.media.0.codec.long_name">WebP image</property>
  <property name="meta.media.0.codec.bit_rate">0</property>
  <property name="meta.media.sample_aspect_num">1</property>
  <property name="meta.media.sample_aspect_den">1</property>
  <property name="meta.media.frame_rate_num">25</property>
  <property name="meta.media.frame_rate_den">1</property>
  <property name="meta.media.colorspace">601</property>
  <property name="meta.media.color_trc">2</property>
  <property name="meta.media.has_b_frames">0</property>
  <property name="meta.media.width">1024</property>
  <property name="meta.media.height">1024</property>
  <property name="meta.media.color_range">mpeg</property>
  <property name="xml">was here</property>
  <property name="meta.media.top_field_first">0</property>
  <property name="meta.media.progressive">1</property>
  <property name="set.test_audio">1</property>
  <property name="set.test_image">0</property>
  <property name="kdenlive:control_uuid">{9d01c918-545d-4e3a-a592-bf20b4d07a50}</property>
  <property name="meta.media.aspect_ratio">1</property>
 </chain>
 <playlist id="playlist18">
  <blank length="00:01:09.280"/>
  <entry producer="producer9" in="00:00:00.000" out="00:00:10.160">
   <property name="kdenlive:id">10</property>
   <filter id="filter79">
    <property name="background">colour:0</property>
    <property name="mlt_service">affine</property>
    <property name="kdenlive_id">pan_zoom</property>
    <property name="transition.rect">00:00:00.000=0 537 960 540</property>
    <property name="transition.distort">0</property>
    <property name="use_normalised">0</property>
    <property name="producer.resource">0x00000000</property>
    <property name="transition.repeat_off">1</property>
    <property name="transition.mirror_off">1</property>
    <property name="kdenlive:collapsed">0</property>
   </filter>
   <filter id="filter77" out="00:00:03.000">
    <property name="start">1</property>
    <property name="level">1</property>
    <property name="mlt_service">brightness</property>
    <property name="kdenlive_id">fade_from_black</property>
    <property name="alpha">00:00:00.000=0;00:00:03.000=1</property>
    <property name="kdenlive:collapsed">0</property>
   </filter>
   <filter id="filter78" in="00:00:07.200" out="00:00:10.200">
    <property name="start">1</property>
    <property name="level">1</property>
    <property name="mlt_service">brightness</property>
    <property name="kdenlive_id">fade_to_black</property>
    <property name="alpha">00:00:00.000=1;00:00:03.000=0</property>
    <property name="kdenlive:collapsed">0</property>
   </filter>
  </entry>
  <blank length="00:01:01.520"/>
  <entry producer="chain46" in="00:00:00.000" out="00:00:11.160">
   <property name="kdenlive:id">15</property>
   <filter id="filter80">
    <property name="version">0.1</property>
    <property name="mlt_service">frei0r.scale0tilt</property>
    <property name="kdenlive_id">frei0r.scale0tilt</property>
    <property name="Clip left">00:00:00.000=0.485417</property>
    <property name="Clip right">00:00:00.000=0</property>
    <property name="Clip top">00:00:00.000=0.562037</property>
    <property name="Clip bottom">00:00:00.000=0.062963</property>
    <property name="Scale X">00:00:00.000=0.5</property>
    <property name="Scale Y">00:00:00.000=0.5</property>
    <property name="Tilt X">00:00:00.000=0.5</property>
    <property name="Tilt Y">00:00:00.000=0.5</property>
    <property name="kdenlive:collapsed">0</property>
   </filter>
   <filter id="filter81">
    <property name="background">colour:0</property>
    <property name="mlt_service">affine</property>
    <property name="kdenlive_id">pan_zoom</property>
    <property name="transition.rect">00:00:00.000=-223 212 2726 1533;00:00:04.960=-223 -302 2726 1533</property>
    <property name="transition.distort">0</property>
    <property name="use_normalised">0</property>
    <property name="producer.resource">0x00000000</property>
    <property name="transition.repeat_off">1</property>
    <property name="transition.mirror_off">1</property>
    <property name="kdenlive:collapsed">0</property>
   </filter>
   <filter id="filter82" in="00:00:08.200" out="00:00:11.200">
    <property name="start">1</property>
    <property name="level">1</property>
    <property name="mlt_service">brightness</property>
    <property name="kdenlive_id">fade_to_black</property>
    <property name="alpha">00:00:00.000=1;00:00:03.000=0</property>
    <property name="kdenlive:collapsed">0</property>
   </filter>
  </entry>
  <blank length="00:02:12.880"/>
  <entry producer="chain47" in="00:00:00.000" out="00:00:15.680">
   <property name="kdenlive:id">17</property>
   <filter id="filter83">
    <property name="version">0.1</property>
    <property name="mlt_service">frei0r.scale0tilt</property>
    <property name="kdenlive_id">frei0r.scale0tilt</property>
    <property name="Clip left">00:00:00.000=0</property>
    <property name="Clip right">00:00:00.000=0</property>
    <property name="Clip top">00:00:00.000=0</property>
    <property name="Clip bottom">00:00:00.000=0.325</property>
    <property name="Scale X">00:00:00.000=0.5</property>
    <property name="Scale Y">00:00:00.000=0.5</property>
    <property name="Tilt X">00:00:00.000=0.5</property>
    <property name="Tilt Y">00:00:00.000=0.5</property>
    <property name="kdenlive:collapsed">0</property>
   </filter>
   <filter id="filter84" out="00:00:03.000">
    <property name="start">1</property>
    <property name="level">1</property>
    <property name="mlt_service">brightness</property>
    <property name="kdenlive_id">fade_from_black</property>
    <property name="alpha">00:00:00.000=0;00:00:03.000=1</property>
    <property name="kdenlive:collapsed">0</property>
   </filter>
   <filter id="filter85" in="00:00:12.680" out="00:00:15.680">
    <property name="start">1</property>
    <property name="level">1</property>
    <property name="mlt_service">brightness</property>
    <property name="kdenlive_id">fade_to_black</property>
    <property name="alpha">00:00:00.000=1;00:00:03.000=0</property>
    <property name="kdenlive:collapsed">0</property>
   </filter>
  </entry>
 </playlist>
 <playlist id="playlist19"/>
 <tractor id="tractor9" in="00:00:00.000" out="00:05:00.760">
  <property name="kdenlive:trackheight">110</property>
  <property name="kdenlive:timeline_active">1</property>
  <property name="kdenlive:collapsed">0</property>
  <property name="kdenlive:track_name">V4</property>
  <property name="kdenlive:thumbs_format"/>
  <property name="kdenlive:audio_rec"/>
  <track hide="audio" producer="playlist18"/>
  <track hide="audio" producer="playlist19"/>
 </tractor>
 <tractor id="{18b3650c-9169-4902-bd10-3d17086243c4}" in="00:00:00.000" out="00:25:20.040">
  <property name="kdenlive:duration">00:05:20:01</property>
  <property name="kdenlive:maxduration">8001</property>
  <property name="kdenlive:clipname">Sequence 3</property>
  <property name="kdenlive:description"/>
  <property name="kdenlive:uuid">{18b3650c-9169-4902-bd10-3d17086243c4}</property>
  <property name="kdenlive:producer_type">17</property>
  <property name="kdenlive:id">5</property>
  <property name="kdenlive:clip_type">0</property>
  <property name="kdenlive:file_hash">74dcb7095a65f5e8eaa56c64036bad2e</property>
  <property name="kdenlive:folderid">2</property>
  <property name="kdenlive:sequenceproperties.activeTrack">9</property>
  <property name="kdenlive:sequenceproperties.disablepreview">0</property>
  <property name="kdenlive:sequenceproperties.documentuuid">{f4b59320-dbd3-41d7-9aa0-9e7efe11012d}</property>
  <property name="kdenlive:sequenceproperties.hasAudio">1</property>
  <property name="kdenlive:sequenceproperties.hasVideo">1</property>
  <property name="kdenlive:sequenceproperties.position">3729</property>
  <property name="kdenlive:sequenceproperties.scrollPos">3308</property>
  <property name="kdenlive:sequenceproperties.tracks">4</property>
  <property name="kdenlive:sequenceproperties.tracksCount">10</property>
  <property name="kdenlive:sequenceproperties.verticalzoom">1</property>
  <property name="kdenlive:sequenceproperties.zonein">0</property>
  <property name="kdenlive:sequenceproperties.zoneout">1254</property>
  <property name="kdenlive:sequenceproperties.zoom">7</property>
  <property name="kdenlive:sequenceproperties.groups">[
]
</property>
  <property name="kdenlive:sequenceproperties.guides">[
]
</property>
  <track producer="producer0"/>
  <track producer="tractor0"/>
  <track producer="tractor1"/>
  <track producer="tractor2"/>
  <track producer="tractor3"/>
  <track producer="tractor4"/>
  <track producer="tractor5"/>
  <track producer="tractor6"/>
  <track producer="tractor7"/>
  <track producer="tractor8"/>
  <track producer="tractor9"/>
  <transition id="transition0">
   <property name="a_track">0</property>
   <property name="b_track">1</property>
   <property name="mlt_service">mix</property>
   <property name="kdenlive_id">mix</property>
   <property name="internal_added">237</property>
   <property name="always_active">1</property>
   <property name="accepts_blanks">1</property>
   <property name="sum">1</property>
  </transition>
  <transition id="transition1">
   <property name="a_track">0</property>
   <property name="b_track">2</property>
   <property name="mlt_service">mix</property>
   <property name="kdenlive_id">mix</property>
   <property name="internal_added">237</property>
   <property name="always_active">1</property>
   <property name="accepts_blanks">1</property>
   <property name="sum">1</property>
  </transition>
  <transition id="transition2">
   <property name="a_track">0</property>
   <property name="b_track">3</property>
   <property name="mlt_service">mix</property>
   <property name="kdenlive_id">mix</property>
   <property name="internal_added">237</property>
   <property name="always_active">1</property>
   <property name="accepts_blanks">1</property>
   <property name="sum">1</property>
  </transition>
  <transition id="transition3">
   <property name="a_track">0</property>
   <property name="b_track">4</property>
   <property name="compositing">0</property>
   <property name="distort">0</property>
   <property name="rotate_center">0</property>
   <property name="mlt_service">qtblend</property>
   <property name="always_active">1</property>
   <property name="internal_added">237</property>
  </transition>
  <transition id="transition4">
   <property name="a_track">0</property>
   <property name="b_track">5</property>
   <property name="compositing">0</property>
   <property name="distort">0</property>
   <property name="rotate_center">0</property>
   <property name="mlt_service">qtblend</property>
   <property name="always_active">1</property>
   <property name="internal_added">237</property>
  </transition>
  <transition id="transition5">
   <property name="a_track">0</property>
   <property name="b_track">6</property>
   <property name="compositing">0</property>
   <property name="distort">0</property>
   <property name="rotate_center">0</property>
   <property name="mlt_service">qtblend</property>
   <property name="always_active">1</property>
   <property name="internal_added">237</property>
  </transition>
  <transition id="transition6">
   <property name="a_track">0</property>
   <property name="b_track">7</property>
   <property name="compositing">0</property>
   <property name="distort">0</property>
   <property name="rotate_center">0</property>
   <property name="mlt_service">qtblend</property>
   <property name="always_active">1</property>
   <property name="internal_added">237</property>
  </transition>
  <transition id="transition7">
   <property name="a_track">0</property>
   <property name="b_track">8</property>
   <property name="compositing">0</property>
   <property name="distort">0</property>
   <property name="rotate_center">0</property>
   <property name="mlt_service">qtblend</property>
   <property name="always_active">1</property>
   <property name="internal_added">237</property>
  </transition>
  <transition id="transition8">
   <property name="a_track">0</property>
   <property name="b_track">9</property>
   <property name="compositing">0</property>
   <property name="distort">0</property>
   <property name="rotate_center">0</property>
   <property name="mlt_service">qtblend</property>
   <property name="always_active">1</property>
   <property name="internal_added">237</property>
  </transition>
  <transition id="transition9">
   <property name="a_track">0</property>
   <property name="b_track">10</property>
   <property name="compositing">0</property>
   <property name="distort">0</property>
   <property name="rotate_center">0</property>
   <property name="mlt_service">qtblend</property>
   <property name="always_active">1</property>
   <property name="internal_added">237</property>
  </transition>
  <filter id="filter86">
   <property name="window">75</property>
   <property name="max_gain">20dB</property>
   <property name="mlt_service">volume</property>
   <property name="internal_added">237</property>
   <property name="disable">1</property>
  </filter>
  <filter id="filter87">
   <property name="channel">-1</property>
   <property name="mlt_service">panner</property>
   <property name="internal_added">237</property>
   <property name="start">0.5</property>
   <property name="disable">1</property>
  </filter>
  <filter id="filter88">
   <property name="mlt_service">avfilter.fieldorder</property>
   <property name="internal_added">237</property>
   <property name="av.order">tff</property>
  </filter>
 </tractor>
 <producer id="producer4" in="00:00:00.000" out="00:20:20.080">
  <property name="length">2147483647</property>
  <property name="eof">continue</property>
  <property name="resource">black</property>
  <property name="aspect_ratio">1</property>
  <property name="mlt_service">color</property>
  <property name="kdenlive:playlistid">black_track</property>
  <property name="mlt_image_format">rgba</property>
  <property name="set.test_audio">0</property>
 </producer>
 <playlist id="playlist20">
  <property name="kdenlive:audio_track">1</property>
 </playlist>
 <playlist id="playlist21">
  <property name="kdenlive:audio_track">1</property>
 </playlist>
 <tractor id="tractor10" in="00:00:00.000">
  <property name="kdenlive:audio_track">1</property>
  <property name="kdenlive:trackheight">110</property>
  <property name="kdenlive:timeline_active">1</property>
  <property name="kdenlive:collapsed">0</property>
  <property name="kdenlive:thumbs_format"/>
  <property name="kdenlive:audio_rec"/>
  <track hide="video" producer="playlist20"/>
  <track hide="video" producer="playlist21"/>
  <filter id="filter89">
   <property name="window">75</property>
   <property name="max_gain">20dB</property>
   <property name="mlt_service">volume</property>
   <property name="internal_added">237</property>
   <property name="disable">1</property>
  </filter>
  <filter id="filter90">
   <property name="channel">-1</property>
   <property name="mlt_service">panner</property>
   <property name="internal_added">237</property>
   <property name="start">0.5</property>
   <property name="disable">1</property>
  </filter>
  <filter id="filter91">
   <property name="iec_scale">0</property>
   <property name="mlt_service">audiolevel</property>
   <property name="dbpeak">1</property>
   <property name="disable">1</property>
  </filter>
 </tractor>
 <playlist id="playlist22">
  <property name="kdenlive:audio_track">1</property>
 </playlist>
 <playlist id="playlist23">
  <property name="kdenlive:audio_track">1</property>
 </playlist>
 <tractor id="tractor11" in="00:00:00.000">
  <property name="kdenlive:audio_track">1</property>
  <property name="kdenlive:trackheight">110</property>
  <property name="kdenlive:timeline_active">1</property>
  <property name="kdenlive:collapsed">0</property>
  <property name="kdenlive:thumbs_format"/>
  <property name="kdenlive:audio_rec"/>
  <track hide="video" producer="playlist22"/>
  <track hide="video" producer="playlist23"/>
  <filter id="filter92">
   <property name="window">75</property>
   <property name="max_gain">20dB</property>
   <property name="mlt_service">volume</property>
   <property name="internal_added">237</property>
   <property name="disable">1</property>
  </filter>
  <filter id="filter93">
   <property name="channel">-1</property>
   <property name="mlt_service">panner</property>
   <property name="internal_added">237</property>
   <property name="start">0.5</property>
   <property name="disable">1</property>
  </filter>
  <filter id="filter96">
   <property name="iec_scale">0</property>
   <property name="mlt_service">audiolevel</property>
   <property name="dbpeak">1</property>
   <property name="disable">1</property>
  </filter>
 </tractor>
 <playlist id="playlist24"/>
 <playlist id="playlist25"/>
 <tractor id="tractor12" in="00:00:00.000">
  <property name="kdenlive:trackheight">110</property>
  <property name="kdenlive:timeline_active">1</property>
  <property name="kdenlive:collapsed">0</property>
  <property name="kdenlive:thumbs_format"/>
  <property name="kdenlive:audio_rec"/>
  <track hide="audio" producer="playlist24"/>
  <track hide="audio" producer="playlist25"/>
 </tractor>
 <producer id="producer11" in="00:00:00.000" out="00:00:55.680">
  <property name="length">00:00:55.720</property>
  <property name="eof">pause</property>
  <property name="resource">scene1.webp</property>
  <property name="audio_index">-1</property>
  <property name="video_index">0</property>
  <property name="mute_on_pause">0</property>
  <property name="mlt_service">avformat-novalidate</property>
  <property name="seekable">1</property>
  <property name="aspect_ratio">1</property>
  <property name="format">1</property>
  <property name="ttl">25</property>
  <property name="kdenlive:duration">00:00:05.000</property>
  <property name="xml">was here</property>
  <property name="kdenlive:folderid">-1</property>
  <property name="kdenlive:id">3</property>
  <property name="kdenlive:control_uuid">{25f1b12c-f75b-41bb-99c1-0be396e66255}</property>
  <property name="kdenlive:clip_type">2</property>
  <property name="kdenlive:file_size">646462</property>
  <property name="kdenlive:monitorPosition">1</property>
  <property name="kdenlive:activeeffect">-1</property>
  <property name="kdenlive:clipname">scene1.webp</property>
  <property name="kdenlive:originalurl">scene1.webp</property>
  <property name="kdenlive:proxy">-</property>
  <property name="kdenlive:file_hash">c1edb1013e6970c933ba7414e2643cf3</property>
  <property name="meta.media.nb_streams">1</property>
  <property name="meta.media.0.stream.type">video</property>
  <property name="meta.media.0.stream.frame_rate">25</property>
  <property name="meta.media.0.stream.sample_aspect_ratio">0</property>
  <property name="meta.media.0.codec.width">1024</property>
  <property name="meta.media.0.codec.height">1024</property>
  <property name="meta.media.0.codec.rotate">0</property>
  <property name="meta.media.0.codec.pix_fmt">yuv420p</property>
  <property name="meta.media.0.codec.sample_aspect_ratio">0</property>
  <property name="meta.media.0.codec.colorspace">601</property>
  <property name="meta.media.0.codec.name">webp</property>
  <property name="meta.media.0.codec.long_name">WebP image</property>
  <property name="meta.media.0.codec.bit_rate">0</property>
  <property name="meta.media.sample_aspect_num">1</property>
  <property name="meta.media.sample_aspect_den">1</property>
  <property name="meta.media.progressive">1</property>
  <property name="meta.media.width">1024</property>
  <property name="meta.media.height">1024</property>
  <property name="set.test_audio">1</property>
  <property name="set.test_image">0</property>
 </producer>
 <playlist id="playlist26">
  <entry producer="producer11" in="00:00:00.000" out="00:00:20.040">
   <property name="kdenlive:id">3</property>
   <filter id="filter97" out="00:00:01.720">
    <property name="start">1</property>
    <property name="level">1</property>
    <property name="mlt_service">brightness</property>
    <property name="kdenlive_id">fade_from_black</property>
    <property name="alpha">00:00:00.000=0;00:00:01.720=1</property>
   </filter>
  </entry>
 </playlist>
 <playlist id="playlist27"/>
 <tractor id="tractor13" in="00:00:00.000" out="00:00:20.040">
  <property name="kdenlive:trackheight">110</property>
  <property name="kdenlive:timeline_active">1</property>
  <property name="kdenlive:collapsed">0</property>
  <property name="kdenlive:thumbs_format"/>
  <property name="kdenlive:audio_rec"/>
  <track hide="audio" producer="playlist26"/>
  <track hide="audio" producer="playlist27"/>
 </tractor>
 <tractor id="{646bfb96-8cd0-44d8-afda-f7b01420357e}" in="00:00:00.000" out="00:20:20.080">
  <property name="kdenlive:uuid">{646bfb96-8cd0-44d8-afda-f7b01420357e}</property>
  <property name="kdenlive:clipname">Sequence 2</property>
  <property name="kdenlive:producer_type">17</property>
  <property name="kdenlive:sequenceproperties.tracksCount">4</property>
  <property name="kdenlive:sequenceproperties.hasAudio">1</property>
  <property name="kdenlive:sequenceproperties.hasVideo">1</property>
  <property name="kdenlive:sequenceproperties.activeTrack">3</property>
  <property name="kdenlive:sequenceproperties.documentuuid">{f4b59320-dbd3-41d7-9aa0-9e7efe11012d}</property>
  <property name="kdenlive:duration">00:00:20:02</property>
  <property name="kdenlive:maxduration">502</property>
  <property name="kdenlive:description"/>
  <property name="kdenlive:id">4</property>
  <property name="kdenlive:clip_type">0</property>
  <property name="kdenlive:file_hash">69d95e2d9dd01c9dbcfcb1ff705676ee</property>
  <property name="kdenlive:folderid">2</property>
  <property name="kdenlive:sequenceproperties.disablepreview">0</property>
  <property name="kdenlive:sequenceproperties.position">3729</property>
  <property name="kdenlive:sequenceproperties.scrollPos">0</property>
  <property name="kdenlive:sequenceproperties.tracks">4</property>
  <property name="kdenlive:sequenceproperties.verticalzoom">1</property>
  <property name="kdenlive:sequenceproperties.zonein">0</property>
  <property name="kdenlive:sequenceproperties.zoneout">500</property>
  <property name="kdenlive:sequenceproperties.zoom">8</property>
  <property name="kdenlive:sequenceproperties.groups">[
]
</property>
  <property name="kdenlive:sequenceproperties.guides">[
]
</property>
  <track producer="producer4"/>
  <track producer="tractor10"/>
  <track producer="tractor11"/>
  <track producer="tractor12"/>
  <track producer="tractor13"/>
  <transition id="transition10">
   <property name="a_track">0</property>
   <property name="b_track">1</property>
   <property name="mlt_service">mix</property>
   <property name="kdenlive_id">mix</property>
   <property name="internal_added">237</property>
   <property name="always_active">1</property>
   <property name="accepts_blanks">1</property>
   <property name="sum">1</property>
  </transition>
  <transition id="transition11">
   <property name="a_track">0</property>
   <property name="b_track">2</property>
   <property name="mlt_service">mix</property>
   <property name="kdenlive_id">mix</property>
   <property name="internal_added">237</property>
   <property name="always_active">1</property>
   <property name="accepts_blanks">1</property>
   <property name="sum">1</property>
  </transition>
  <transition id="transition12">
   <property name="a_track">0</property>
   <property name="b_track">3</property>
   <property name="compositing">0</property>
   <property name="distort">0</property>
   <property name="rotate_center">0</property>
   <property name="mlt_service">qtblend</property>
   <property name="kdenlive_id">qtblend</property>
   <property name="internal_added">237</property>
   <property name="always_active">1</property>
  </transition>
  <transition id="transition13">
   <property name="a_track">0</property>
   <property name="b_track">4</property>
   <property name="compositing">0</property>
   <property name="distort">0</property>
   <property name="rotate_center">0</property>
   <property name="mlt_service">qtblend</property>
   <property name="kdenlive_id">qtblend</property>
   <property name="internal_added">237</property>
   <property name="always_active">1</property>
  </transition>
  <filter id="filter98">
   <property name="window">75</property>
   <property name="max_gain">20dB</property>
   <property name="mlt_service">volume</property>
   <property name="internal_added">237</property>
   <property name="disable">1</property>
  </filter>
  <filter id="filter99">
   <property name="channel">-1</property>
   <property name="mlt_service">panner</property>
   <property name="internal_added">237</property>
   <property name="start">0.5</property>
   <property name="disable">1</property>
  </filter>
  <filter id="filter100">
   <property name="mlt_service">avfilter.fieldorder</property>
   <property name="internal_added">237</property>
   <property name="av.order">tff</property>
  </filter>
 </tractor>
 <chain id="chain48" out="00:00:59.960">
  <property name="length">1500</property>
  <property name="eof">pause</property>
  <property name="resource">qimage:/home/furmountain/repos/battle-of-alturia/m1/scene2.webp</property>
  <property name="mlt_service">avformat-novalidate</property>
  <property name="meta.media.nb_streams">1</property>
  <property name="meta.media.0.stream.type">video</property>
  <property name="meta.media.0.stream.frame_rate">25</property>
  <property name="meta.media.0.stream.sample_aspect_ratio">0</property>
  <property name="meta.media.0.codec.width">1024</property>
  <property name="meta.media.0.codec.height">1024</property>
  <property name="meta.media.0.codec.rotate">0</property>
  <property name="meta.media.0.codec.pix_fmt">yuv420p</property>
  <property name="meta.media.0.codec.sample_aspect_ratio">0</property>
  <property name="meta.media.0.codec.colorspace">601</property>
  <property name="meta.media.0.codec.name">webp</property>
  <property name="meta.media.0.codec.long_name">WebP image</property>
  <property name="meta.media.0.codec.bit_rate">0</property>
  <property name="seekable">1</property>
  <property name="meta.media.sample_aspect_num">1</property>
  <property name="meta.media.sample_aspect_den">1</property>
  <property name="format">3</property>
  <property name="audio_index">-1</property>
  <property name="video_index">0</property>
  <property name="vstream">0</property>
  <property name="meta.media.frame_rate_num">25</property>
  <property name="meta.media.frame_rate_den">1</property>
  <property name="meta.media.colorspace">601</property>
  <property name="meta.media.color_trc">2</property>
  <property name="meta.media.has_b_frames">0</property>
  <property name="meta.media.width">1024</property>
  <property name="meta.media.height">1024</property>
  <property name="meta.media.color_range">mpeg</property>
  <property name="meta.media.top_field_first">0</property>
  <property name="meta.media.progressive">1</property>
  <property name="kdenlive:folderid">-1</property>
  <property name="kdenlive:id">34</property>
  <property name="mute_on_pause">0</property>
  <property name="kdenlive:clip_type">2</property>
  <property name="kdenlive:file_size">0</property>
 </chain>
 <chain id="chain49" out="00:00:59.960">
  <property name="length">1500</property>
  <property name="eof">pause</property>
  <property name="resource">qimage:/home/furmountain/repos/battle-of-alturia/m1/scene4.webp</property>
  <property name="mlt_service">avformat-novalidate</property>
  <property name="meta.media.nb_streams">1</property>
  <property name="meta.media.0.stream.type">video</property>
  <property name="meta.media.0.stream.frame_rate">25</property>
  <property name="meta.media.0.stream.sample_aspect_ratio">0</property>
  <property name="meta.media.0.codec.width">1024</property>
  <property name="meta.media.0.codec.height">1024</property>
  <property name="meta.media.0.codec.rotate">0</property>
  <property name="meta.media.0.codec.pix_fmt">yuv420p</property>
  <property name="meta.media.0.codec.sample_aspect_ratio">0</property>
  <property name="meta.media.0.codec.colorspace">601</property>
  <property name="meta.media.0.codec.name">webp</property>
  <property name="meta.media.0.codec.long_name">WebP image</property>
  <property name="meta.media.0.codec.bit_rate">0</property>
  <property name="seekable">1</property>
  <property name="meta.media.sample_aspect_num">1</property>
  <property name="meta.media.sample_aspect_den">1</property>
  <property name="format">3</property>
  <property name="audio_index">-1</property>
  <property name="video_index">0</property>
  <property name="vstream">0</property>
  <property name="meta.media.frame_rate_num">25</property>
  <property name="meta.media.frame_rate_den">1</property>
  <property name="meta.media.colorspace">601</property>
  <property name="meta.media.color_trc">2</property>
  <property name="meta.media.has_b_frames">0</property>
  <property name="meta.media.width">1024</property>
  <property name="meta.media.height">1024</property>
  <property name="meta.media.color_range">mpeg</property>
  <property name="meta.media.top_field_first">0</property>
  <property name="meta.media.progressive">1</property>
  <property name="kdenlive:folderid">-1</property>
  <property name="kdenlive:id">35</property>
  <property name="mute_on_pause">0</property>
  <property name="kdenlive:clip_type">2</property>
  <property name="kdenlive:file_size">0</property>
 </chain>
 <playlist id="main_bin">
  <property name="kdenlive:folder.-1.2">Sequences</property>
  <property name="kdenlive:sequenceFolder">2</property>
  <property name="kdenlive:docproperties.activetimeline">{18b3650c-9169-4902-bd10-3d17086243c4}</property>
  <property name="kdenlive:docproperties.audioChannels">2</property>
  <property name="kdenlive:docproperties.binsort">0</property>
  <property name="kdenlive:docproperties.browserurl"/>
  <property name="kdenlive:docproperties.compositing">1</property>
  <property name="kdenlive:docproperties.documentid">1731007182628</property>
  <property name="kdenlive:docproperties.enableTimelineZone">0</property>
  <property name="kdenlive:docproperties.enableexternalproxy">0</property>
  <property name="kdenlive:docproperties.enableproxy">0</property>
  <property name="kdenlive:docproperties.externalproxyparams"/>
  <property name="kdenlive:docproperties.generateimageproxy">0</property>
  <property name="kdenlive:docproperties.generateproxy">0</property>
  <property name="kdenlive:docproperties.guidesCategories">[
    {
        "color": "#9b59b6",
        "comment": "Category 1",
        "index": 0
    },
    {
        "color": "#3daee9",
        "comment": "Category 2",
        "index": 1
    },
    {
        "color": "#1abc9c",
        "comment": "Category 3",
        "index": 2
    },
    {
        "color": "#1cdc9a",
        "comment": "Category 4",
        "index": 3
    },
    {
        "color": "#c9ce3b",
        "comment": "Category 5",
        "index": 4
    },
    {
        "color": "#fdbc4b",
        "comment": "Category 6",
        "index": 5
    },
    {
        "color": "#f39c1f",
        "comment": "Category 7",
        "index": 6
    },
    {
        "color": "#f47750",
        "comment": "Category 8",
        "index": 7
    },
    {
        "color": "#da4453",
        "comment": "Category 9",
        "index": 8
    }
]
</property>
  <property name="kdenlive:docproperties.kdenliveversion">23.08.5</property>
  <property name="kdenlive:docproperties.opensequences">{18b3650c-9169-4902-bd10-3d17086243c4}</property>
  <property name="kdenlive:docproperties.previewextension"/>
  <property name="kdenlive:docproperties.previewparameters"/>
  <property name="kdenlive:docproperties.profile">atsc_1080i_50</property>
  <property name="kdenlive:docproperties.proxyextension"/>
  <property name="kdenlive:docproperties.proxyimageminsize">2000</property>
  <property name="kdenlive:docproperties.proxyimagesize">800</property>
  <property name="kdenlive:docproperties.proxyminsize">1000</property>
  <property name="kdenlive:docproperties.proxyparams"/>
  <property name="kdenlive:docproperties.proxyresize">640</property>
  <property name="kdenlive:docproperties.rendercategory">Generic (HD for web, mobile devices...)</property>
  <property name="kdenlive:docproperties.rendercustomquality">-1</property>
  <property name="kdenlive:docproperties.renderendguide">-1</property>
  <property name="kdenlive:docproperties.renderexportaudio">0</property>
  <property name="kdenlive:docproperties.renderfullcolorrange">0</property>
  <property name="kdenlive:docproperties.rendermode">0</property>
  <property name="kdenlive:docproperties.renderplay">0</property>
  <property name="kdenlive:docproperties.renderpreview">0</property>
  <property name="kdenlive:docproperties.renderprofile">MP4-H264/AAC</property>
  <property name="kdenlive:docproperties.renderrescale">0</property>
  <property name="kdenlive:docproperties.renderrescaleheight">540</property>
  <property name="kdenlive:docproperties.renderrescalewidth">960</property>
  <property name="kdenlive:docproperties.renderspeed">6</property>
  <property name="kdenlive:docproperties.renderstartguide">-1</property>
  <property name="kdenlive:docproperties.rendertcoverlay">0</property>
  <property name="kdenlive:docproperties.rendertctype">-1</property>
  <property name="kdenlive:docproperties.rendertwopass">0</property>
  <property name="kdenlive:docproperties.renderurl">intro.mp4</property>
  <property name="kdenlive:docproperties.seekOffset">7500</property>
  <property name="kdenlive:docproperties.storagefolder">1731007182628</property>
  <property name="kdenlive:docproperties.uuid">{f4b59320-dbd3-41d7-9aa0-9e7efe11012d}</property>
  <property name="kdenlive:docproperties.version">1.1</property>
  <property name="kdenlive:expandedFolders">2</property>
  <property name="kdenlive:binZoom">4</property>
  <property name="kdenlive:documentnotes"/>
  <property name="xml_retain">1</property>
  <entry producer="producer1" in="00:00:00.000" out="00:00:55.680"/>
  <entry producer="producer5" in="00:00:00.000" out="00:01:07.480"/>
  <entry producer="producer3" in="00:00:00.000" out="00:01:00.360"/>
  <entry producer="producer8" in="00:00:00.000" out="00:01:05.880"/>
  <entry producer="producer9" in="00:00:00.000" out="00:00:30.800"/>
  <entry producer="producer7" in="00:00:00.000" out="00:00:38.080"/>
  <entry producer="chain11" in="00:00:00.000" out="00:00:59.960"/>
  <entry producer="chain12" in="00:00:00.000" out="00:00:59.960"/>
  <entry producer="chain13" in="00:00:00.000" out="00:00:59.960"/>
  <entry producer="chain14" in="00:00:00.000" out="00:00:59.960"/>
  <entry producer="chain15" in="00:00:00.000" out="00:00:59.960"/>
  <entry producer="chain19" in="00:00:00.000" out="00:03:41.920"/>
  <entry producer="chain20" in="00:00:00.000" out="00:01:25.440"/>
  <entry producer="chain21" in="00:00:00.000" out="00:00:18.200"/>
  <entry producer="chain34" in="00:00:00.000" out="00:00:03.480"/>
  <entry producer="chain35" in="00:00:00.000" out="00:00:04.960"/>
  <entry producer="chain36" in="00:00:00.000" out="00:00:05.360"/>
  <entry producer="chain37" in="00:00:00.000" out="00:00:04.920"/>
  <entry producer="chain38" in="00:00:00.000" out="00:00:15.440"/>
  <entry producer="chain39" in="00:00:00.000" out="00:00:13.280"/>
  <entry producer="chain40" in="00:00:00.000" out="00:00:10.920"/>
  <entry producer="chain41" in="00:00:00.000" out="00:00:05.360"/>
  <entry producer="chain42" in="00:00:00.000" out="00:00:15.960"/>
  <entry producer="chain43" in="00:00:00.000" out="00:00:09.920"/>
  <entry producer="chain44" in="00:00:00.000" out="00:00:25.600"/>
  <entry producer="chain45" in="00:00:00.000" out="00:00:11.280"/>
  <entry producer="producer2" in="00:00:00.000" out="00:00:59.960"/>
  <entry producer="{18b3650c-9169-4902-bd10-3d17086243c4}" in="00:00:00.000" out="00:05:20.000"/>
  <entry producer="{646bfb96-8cd0-44d8-afda-f7b01420357e}" in="00:00:00.000" out="00:20:20.080"/>
  <entry producer="chain48" in="00:00:00.000" out="00:00:59.960"/>
  <entry producer="chain49" in="00:00:00.000" out="00:00:59.960"/>
 </playlist>
 <tractor id="tractor14" in="00:00:00.000" out="00:05:20.040">
  <property name="kdenlive:projectTractor">1</property>
  <track producer="{18b3650c-9169-4902-bd10-3d17086243c4}" in="00:00:00.000" out="00:05:20.040"/>
 </tractor>
</mlt>
